<svg id="my-svg" width="100%" xmlns="http://www.w3.org/2000/svg" xmlns:xlink="http://www.w3.org/1999/xlink" class="flowchart" style="max-width: 2065.15px; background-color: #0a1628;" viewBox="-299.625 -52 2065.15380859375 1221.265625" role="graphics-document document" aria-roledescription="flowchart-v2"><defs><pattern id="bp-grid" x="-299.625" y="-52" width="40" height="40" patternUnits="userSpaceOnUse"><path d="M 10 0 L 10 40 M 20 0 L 20 40 M 30 0 L 30 40 M 0 10 L 40 10 M 0 20 L 40 20 M 0 30 L 40 30" fill="none" stroke="#16304f" stroke-width="0.35" opacity="0.35"/><path d="M 40 0 L 0 0 L 0 40" fill="none" stroke="#1e3a5f" stroke-width="0.75" opacity="0.55"/></pattern></defs><rect x="-299.625" y="-52" width="2065.15380859375" height="1221.265625" fill="#0a1628"/><rect x="-299.625" y="-52" width="2065.15380859375" height="1221.265625" fill="url(#bp-grid)"/><style>#my-svg{font-family:-apple-system,BlinkMacSystemFont,Segoe UI,Helvetica,Arial,sans-serif;font-size:16px;fill:#ccc;}@keyframes edge-animation-frame{from{stroke-dashoffset:0;}}@keyframes dash{to{stroke-dashoffset:0;}}#my-svg .edge-animation-slow{stroke-dasharray:9,5!important;stroke-dashoffset:900;animation:dash 50s linear infinite;stroke-linecap:round;}#my-svg .edge-animation-fast{stroke-dasharray:9,5!important;stroke-dashoffset:900;animation:dash 20s linear infinite;stroke-linecap:round;}#my-svg .error-icon{fill:#a44141;}#my-svg .error-text{fill:#ddd;stroke:#ddd;}#my-svg .edge-thickness-normal{stroke-width:1px;}#my-svg .edge-thickness-thick{stroke-width:3.5px;}#my-svg .edge-pattern-solid{stroke-dasharray:0;}#my-svg .edge-thickness-invisible{stroke-width:0;fill:none;}#my-svg .edge-pattern-dashed{stroke-dasharray:3;}#my-svg .edge-pattern-dotted{stroke-dasharray:2;}#my-svg .marker{fill:#8b949e;stroke:#8b949e;}#my-svg .marker.cross{stroke:#8b949e;}#my-svg svg{font-family:-apple-system,BlinkMacSystemFont,Segoe UI,Helvetica,Arial,sans-serif;font-size:16px;}#my-svg p{margin:0;}#my-svg .label{font-family:-apple-system,BlinkMacSystemFont,Segoe UI,Helvetica,Arial,sans-serif;color:#ccc;}#my-svg .cluster-label text{fill:#F9FFFE;}#my-svg .cluster-label span{color:#F9FFFE;}#my-svg .cluster-label span p{background-color:transparent;}#my-svg .label text,#my-svg span{fill:#ccc;color:#ccc;}#my-svg .node rect,#my-svg .node circle,#my-svg .node ellipse,#my-svg .node polygon,#my-svg .node path{fill:#1f2020;stroke:#ccc;stroke-width:1px;}#my-svg .rough-node .label text,#my-svg .node .label text,#my-svg .image-shape .label,#my-svg .icon-shape .label{text-anchor:middle;}#my-svg .node .katex path{fill:#000;stroke:#000;stroke-width:1px;}#my-svg .rough-node .label,#my-svg .node .label,#my-svg .image-shape .label,#my-svg .icon-shape .label{text-align:center;}#my-svg .node.clickable{cursor:pointer;}#my-svg .root .anchor path{fill:#8b949e!important;stroke-width:0;stroke:#8b949e;}#my-svg .arrowheadPath{fill:lightgrey;}#my-svg .edgePath .path{stroke:#8b949e;stroke-width:1px;}#my-svg .flowchart-link{stroke:#8b949e;fill:none;}#my-svg .edgeLabel{background-color:hsl(0, 0%, 34.4117647059%);text-align:center;}#my-svg .edgeLabel p{background-color:hsl(0, 0%, 34.4117647059%);}#my-svg .edgeLabel rect{opacity:0.5;background-color:hsl(0, 0%, 34.4117647059%);fill:hsl(0, 0%, 34.4117647059%);}#my-svg .labelBkg{background-color:rgba(87.75, 87.75, 87.75, 0.5);}#my-svg .cluster rect{fill:hsl(180, 1.5873015873%, 28.3529411765%);stroke:rgba(255, 255, 255, 0.25);stroke-width:1px;}#my-svg .cluster text{fill:#F9FFFE;}#my-svg .cluster span{color:#F9FFFE;}#my-svg div.mermaidTooltip{position:absolute;text-align:center;max-width:200px;padding:2px;font-family:-apple-system,BlinkMacSystemFont,Segoe UI,Helvetica,Arial,sans-serif;font-size:12px;background:#0d1117;border:1px solid rgba(255, 255, 255, 0.25);border-radius:2px;pointer-events:none;z-index:100;}#my-svg .flowchartTitleText{text-anchor:middle;font-size:18px;fill:#ccc;}#my-svg rect.text{fill:none;stroke-width:0;}#my-svg .icon-shape,#my-svg .image-shape{background-color:hsl(0, 0%, 34.4117647059%);text-align:center;}#my-svg .icon-shape p,#my-svg .image-shape p{background-color:hsl(0, 0%, 34.4117647059%);padding:2px;}#my-svg .icon-shape .label rect,#my-svg .image-shape .label rect{opacity:0.5;background-color:hsl(0, 0%, 34.4117647059%);fill:hsl(0, 0%, 34.4117647059%);}#my-svg .label-icon{display:inline-block;height:1em;overflow:visible;vertical-align:-0.125em;}#my-svg .node .label-icon path{fill:currentColor;stroke:revert;stroke-width:revert;}#my-svg .node .neo-node{stroke:#ccc;}#my-svg [data-look="neo"].node rect,#my-svg [data-look="neo"].cluster rect,#my-svg [data-look="neo"].node polygon{stroke:url(#my-svg-gradient);filter:drop-shadow( 1px 2px 2px rgba(185,185,185,1));}#my-svg [data-look="neo"].node path{stroke:url(#my-svg-gradient);stroke-width:1px;}#my-svg [data-look="neo"].node .outer-path{filter:drop-shadow( 1px 2px 2px rgba(185,185,185,1));}#my-svg [data-look="neo"].node .neo-line path{stroke:#ccc;filter:none;}#my-svg [data-look="neo"].node circle{stroke:url(#my-svg-gradient);filter:drop-shadow( 1px 2px 2px rgba(185,185,185,1));}#my-svg [data-look="neo"].node circle .state-start{fill:#000000;}#my-svg [data-look="neo"].icon-shape .icon{fill:url(#my-svg-gradient);filter:drop-shadow( 1px 2px 2px rgba(185,185,185,1));}#my-svg [data-look="neo"].icon-shape .icon-neo path{stroke:url(#my-svg-gradient);filter:drop-shadow( 1px 2px 2px rgba(185,185,185,1));}#my-svg :root{--mermaid-font-family:"trebuchet ms",verdana,arial,sans-serif;}#my-svg .titleBlock&gt;*{fill:#06111f!important;stroke:#1e3a5f!important;stroke-width:1px!important;color:#e6edf3!important;rx:4!important;ry:4!important;}#my-svg .titleBlock span{fill:#06111f!important;stroke:#1e3a5f!important;stroke-width:1px!important;color:#e6edf3!important;rx:4!important;ry:4!important;}#my-svg .titleBlock tspan{fill:#e6edf3!important;}#my-svg .sourceNode&gt;*{fill:#0a1628!important;stroke:#1e3a5f!important;stroke-width:1.5px!important;color:#e6edf3!important;rx:8!important;ry:8!important;}#my-svg .sourceNode span{fill:#0a1628!important;stroke:#1e3a5f!important;stroke-width:1.5px!important;color:#e6edf3!important;rx:8!important;ry:8!important;}#my-svg .sourceNode tspan{fill:#e6edf3!important;}#my-svg .journalLine&gt;*{fill:#0a1628!important;stroke:#1e3a5f!important;stroke-width:1px!important;color:#c9d1d9!important;rx:6!important;ry:6!important;}#my-svg .journalLine span{fill:#0a1628!important;stroke:#1e3a5f!important;stroke-width:1px!important;color:#c9d1d9!important;rx:6!important;ry:6!important;}#my-svg .journalLine tspan{fill:#c9d1d9!important;}#my-svg .busNode&gt;*{fill:#0f1d33!important;stroke:#79c0ff!important;stroke-width:2px!important;color:#79c0ff!important;rx:8!important;ry:8!important;}#my-svg .busNode span{fill:#0f1d33!important;stroke:#79c0ff!important;stroke-width:2px!important;color:#79c0ff!important;rx:8!important;ry:8!important;}#my-svg .busNode tspan{fill:#79c0ff!important;}#my-svg .queryNode&gt;*{fill:#0f1d33!important;stroke:#3fb950!important;stroke-width:1.5px!important;color:#3fb950!important;rx:14!important;ry:14!important;}#my-svg .queryNode span{fill:#0f1d33!important;stroke:#3fb950!important;stroke-width:1.5px!important;color:#3fb950!important;rx:14!important;ry:14!important;}#my-svg .queryNode tspan{fill:#3fb950!important;}</style><g><marker id="my-svg_flowchart-v2-pointEnd" class="marker flowchart-v2" viewBox="0 0 10 10" refX="5" refY="5" markerUnits="userSpaceOnUse" markerWidth="8" markerHeight="8" orient="auto"><path d="M 0 0 L 10 5 L 0 10 z" class="arrowMarkerPath" style="stroke-width: 1; stroke-dasharray: 1, 0;"/></marker><marker id="my-svg_flowchart-v2-pointStart" class="marker flowchart-v2" viewBox="0 0 10 10" refX="4.5" refY="5" markerUnits="userSpaceOnUse" markerWidth="8" markerHeight="8" orient="auto"><path d="M 0 5 L 10 10 L 10 0 z" class="arrowMarkerPath" style="stroke-width: 1; stroke-dasharray: 1, 0;"/></marker><marker id="my-svg_flowchart-v2-pointEnd-margin" class="marker flowchart-v2" viewBox="0 0 11.5 14" refX="11.5" refY="7" markerUnits="userSpaceOnUse" markerWidth="10.5" markerHeight="14" orient="auto"><path d="M 0 0 L 11.5 7 L 0 14 z" class="arrowMarkerPath" style="stroke-width: 0; stroke-dasharray: 1, 0;"/></marker><marker id="my-svg_flowchart-v2-pointStart-margin" class="marker flowchart-v2" viewBox="0 0 11.5 14" refX="1" refY="7" markerUnits="userSpaceOnUse" markerWidth="11.5" markerHeight="14" orient="auto"><polygon points="0,7 11.5,14 11.5,0" class="arrowMarkerPath" style="stroke-width: 0; stroke-dasharray: 1, 0;"/></marker><marker id="my-svg_flowchart-v2-circleEnd" class="marker flowchart-v2" viewBox="0 0 10 10" refX="11" refY="5" markerUnits="userSpaceOnUse" markerWidth="11" markerHeight="11" orient="auto"><circle cx="5" cy="5" r="5" class="arrowMarkerPath" style="stroke-width: 1; stroke-dasharray: 1, 0;"/></marker><marker id="my-svg_flowchart-v2-circleStart" class="marker flowchart-v2" viewBox="0 0 10 10" refX="-1" refY="5" markerUnits="userSpaceOnUse" markerWidth="11" markerHeight="11" orient="auto"><circle cx="5" cy="5" r="5" class="arrowMarkerPath" style="stroke-width: 1; stroke-dasharray: 1, 0;"/></marker><marker id="my-svg_flowchart-v2-circleEnd-margin" class="marker flowchart-v2" viewBox="0 0 10 10" refY="5" refX="12.25" markerUnits="userSpaceOnUse" markerWidth="14" markerHeight="14" orient="auto"><circle cx="5" cy="5" r="5" class="arrowMarkerPath" style="stroke-width: 0; stroke-dasharray: 1, 0;"/></marker><marker id="my-svg_flowchart-v2-circleStart-margin" class="marker flowchart-v2" viewBox="0 0 10 10" refX="-2" refY="5" markerUnits="userSpaceOnUse" markerWidth="14" markerHeight="14" orient="auto"><circle cx="5" cy="5" r="5" class="arrowMarkerPath" style="stroke-width: 0; stroke-dasharray: 1, 0;"/></marker><marker id="my-svg_flowchart-v2-crossEnd" class="marker cross flowchart-v2" viewBox="0 0 11 11" refX="12" refY="5.2" markerUnits="userSpaceOnUse" markerWidth="11" markerHeight="11" orient="auto"><path d="M 1,1 l 9,9 M 10,1 l -9,9" class="arrowMarkerPath" style="stroke-width: 2; stroke-dasharray: 1, 0;"/></marker><marker id="my-svg_flowchart-v2-crossStart" class="marker cross flowchart-v2" viewBox="0 0 11 11" refX="-1" refY="5.2" markerUnits="userSpaceOnUse" markerWidth="11" markerHeight="11" orient="auto"><path d="M 1,1 l 9,9 M 10,1 l -9,9" class="arrowMarkerPath" style="stroke-width: 2; stroke-dasharray: 1, 0;"/></marker><marker id="my-svg_flowchart-v2-crossEnd-margin" class="marker cross flowchart-v2" viewBox="0 0 15 15" refX="17.7" refY="7.5" markerUnits="userSpaceOnUse" markerWidth="12" markerHeight="12" orient="auto"><path d="M 1,1 L 14,14 M 1,14 L 14,1" class="arrowMarkerPath" style="stroke-width: 2.5;"/></marker><marker id="my-svg_flowchart-v2-crossStart-margin" class="marker cross flowchart-v2" viewBox="0 0 15 15" refX="-3.5" refY="7.5" markerUnits="userSpaceOnUse" markerWidth="12" markerHeight="12" orient="auto"><path d="M 1,1 L 14,14 M 1,14 L 14,1" class="arrowMarkerPath" style="stroke-width: 2.5; stroke-dasharray: 1, 0;"/></marker><g class="root"><g class="clusters"><g class="cluster" id="my-svg-rubr" data-look="neo"><rect style="fill:#0f1d33 !important;stroke:#d29922 !important;stroke-width:2px !important;rx:12 !important;ry:12 !important" x="-291.625" y="545.359375" width="948" height="357.125"/><g class="cluster-label" transform="translate(-287.625, 559.359375)"><foreignObject width="940" height="32"><div xmlns="http://www.w3.org/1999/xhtml" style="display: table-cell; white-space: nowrap; line-height: 1.5;"><span class="nodeLabel" style="color:#e6edf3 !important"><p></p><div style="text-align:center;min-width:940px;line-height:2"><span style="font-family:ui-monospace,monospace;color:&amp;8b949e;font-size:11px;letter-spacing:3px">JOURNAL 04</span>  ·  <b style="letter-spacing:2px">lich-rubric / state /</b></div><p></p></span></div></foreignObject></g></g><g class="cluster" id="my-svg-pref" data-look="neo"><rect style="fill:#0f1d33 !important;stroke:#bc8cff !important;stroke-width:2px !important;rx:12 !important;ry:12 !important" x="809.52880859375" y="328.796875" width="948" height="573.6875"/><g class="cluster-label" transform="translate(813.52880859375, 342.796875)"><foreignObject width="940" height="32"><div xmlns="http://www.w3.org/1999/xhtml" style="display: table-cell; white-space: nowrap; line-height: 1.5;"><span class="nodeLabel" style="color:#e6edf3 !important"><p></p><div style="text-align:center;min-width:940px;line-height:2"><span style="font-family:ui-monospace,monospace;color:&amp;8b949e;font-size:11px;letter-spacing:3px">JOURNAL 03</span>  ·  <b style="letter-spacing:2px">lich-preference / state /</b></div><p></p></span></div></foreignObject></g></g><g class="cluster" id="my-svg-sbox" data-look="neo"><rect style="fill:#0f1d33 !important;stroke:#3fb950 !important;stroke-width:2px !important;rx:12 !important;ry:12 !important" x="361.86865234375" y="545.359375" width="948" height="357.125"/><g class="cluster-label" transform="translate(365.86865234375, 559.359375)"><foreignObject width="940" height="32"><div xmlns="http://www.w3.org/1999/xhtml" style="display: table-cell; white-space: nowrap; line-height: 1.5;"><span class="nodeLabel" style="color:#e6edf3 !important"><p></p><div style="text-align:center;min-width:940px;line-height:2"><span style="font-family:ui-monospace,monospace;color:&amp;8b949e;font-size:11px;letter-spacing:3px">JOURNAL 02</span>  ·  <b style="letter-spacing:2px">lich-sandbox / state /</b></div><p></p></span></div></foreignObject></g></g><g class="cluster" id="my-svg-core" data-look="neo"><rect style="fill:#0f1d33 !important;stroke:#58a6ff !important;stroke-width:2px !important;rx:12 !important;ry:12 !important" x="297.1270751953125" y="328.796875" width="948" height="194.5625"/><g class="cluster-label" transform="translate(301.1270751953125, 342.796875)"><foreignObject width="940" height="32"><div xmlns="http://www.w3.org/1999/xhtml" style="display: table-cell; white-space: nowrap; line-height: 1.5;"><span class="nodeLabel" style="color:#e6edf3 !important"><p></p><div style="text-align:center;min-width:940px;line-height:2"><span style="font-family:ui-monospace,monospace;color:&amp;8b949e;font-size:11px;letter-spacing:3px">JOURNAL 01</span>  ·  <b style="letter-spacing:2px">lich-core / state /</b></div><p></p></span></div></foreignObject></g></g><g class="cluster" id="my-svg-sources" data-look="neo"><rect style="" x="110.71875" y="148.796875" width="1215.72412109375" height="158"/><g class="cluster-label" transform="translate(248.580810546875, 162.796875)"><foreignObject width="940" height="16.5"><div xmlns="http://www.w3.org/1999/xhtml" style="display: table-cell; white-space: nowrap; line-height: 1.5;"><span class="nodeLabel"><p></p><div style="text-align:center;min-width:940px;font-family:ui-monospace,monospace;color:&amp;8b949e;font-size:11px;letter-spacing:3px">EVENT SOURCES  ·  HOOK FIRES</div><p></p></span></div></foreignObject></g></g></g><g class="edgePaths"><path d="M903.776,262.191L871.57,269.625C839.365,277.059,774.955,291.928,742.75,303.862C710.544,315.797,710.544,324.797,710.544,333.797C710.544,342.797,710.544,351.797,710.544,360.13C710.544,368.464,710.544,376.13,710.544,379.964L710.544,383.797" id="my-svg-L_PostTool_core_find_0" class="edge-thickness-normal edge-pattern-solid edge-thickness-normal edge-pattern-solid flowchart-link" style="stroke-dasharray: 0 0 259.9782409667969 4; stroke-dashoffset: 0;stroke:#8b949e;stroke-width:1.5px;;;stroke:#8b949e;stroke-width:1.5px" data-edge="true" data-et="edge" data-id="L_PostTool_core_find_0" data-points="W3sieCI6OTAzLjc3NTUxMjY5NTMxMjUsInkiOjI2Mi4xOTA1MDczNzY2NTQxfSx7IngiOjcxMC41NDQ0MzM1OTM3NSwieSI6MzA2Ljc5Njg3NX0seyJ4Ijo3MTAuNTQ0NDMzNTkzNzUsInkiOjMzMy43OTY4NzV9LHsieCI6NzEwLjU0NDQzMzU5Mzc1LCJ5IjozNjAuNzk2ODc1fSx7IngiOjcxMC41NDQ0MzM1OTM3NSwieSI6Mzg3Ljc5Njg3NX1d" data-look="neo" marker-end="url(#my-svg_flowchart-v2-pointEnd-margin__8b949e)"/><path d="M979.787,279.797L979.329,284.297C978.871,288.797,977.954,297.797,977.495,306.797C977.037,315.797,977.037,324.797,977.037,333.797C977.037,342.797,977.037,351.797,977.037,362.396C977.037,372.995,977.037,385.193,977.037,391.292L977.037,397.391" id="my-svg-L_PostTool_core_met_0" class="edge-thickness-normal edge-pattern-solid edge-thickness-normal edge-pattern-solid flowchart-link" style="stroke-dasharray: 0 0 113.70136260986328 4; stroke-dashoffset: 0;stroke:#8b949e;stroke-width:1.5px;;;stroke:#8b949e;stroke-width:1.5px" data-edge="true" data-et="edge" data-id="L_PostTool_core_met_0" data-points="W3sieCI6OTc5Ljc4NzQ0MDcwODcwNTQsInkiOjI3OS43OTY4NzV9LHsieCI6OTc3LjAzNjYyMTA5Mzc1LCJ5IjozMDYuNzk2ODc1fSx7IngiOjk3Ny4wMzY2MjEwOTM3NSwieSI6MzMzLjc5Njg3NX0seyJ4Ijo5NzcuMDM2NjIxMDkzNzUsInkiOjM2MC43OTY4NzV9LHsieCI6OTc3LjAzNjYyMTA5Mzc1LCJ5Ijo0MDEuMzkwNjI1fV0=" data-look="neo" marker-end="url(#my-svg_flowchart-v2-pointEnd-margin__8b949e)"/><path d="M792.123,496.359L798.886,500.859C805.649,505.359,819.175,514.359,825.938,523.359C832.701,532.359,832.701,541.359,832.701,550.359C832.701,559.359,832.701,568.359,832.701,576.693C832.701,585.026,832.701,592.693,832.701,596.526L832.701,600.359" id="my-svg-L_core_find_sbox_ex_0" class="edge-thickness-normal edge-pattern-solid edge-thickness-normal edge-pattern-solid flowchart-link" style="stroke-dasharray: 0 0 117.88482666015625 4; stroke-dashoffset: 0;stroke:#8b949e;stroke-width:1.5px;;;stroke:#8b949e;stroke-width:1.5px" data-edge="true" data-et="edge" data-id="L_core_find_sbox_ex_0" data-points="W3sieCI6NzkyLjEyMjgyODkyMjQ2OTcsInkiOjQ5Ni4zNTkzNzV9LHsieCI6ODMyLjcwMDY4MzU5Mzc1LCJ5Ijo1MjMuMzU5Mzc1fSx7IngiOjgzMi43MDA2ODM1OTM3NSwieSI6NTUwLjM1OTM3NX0seyJ4Ijo4MzIuNzAwNjgzNTkzNzUsInkiOjU3Ny4zNTkzNzV9LHsieCI6ODMyLjcwMDY4MzU5Mzc1LCJ5Ijo2MDQuMzU5Mzc1fV0=" data-look="neo" marker-end="url(#my-svg_flowchart-v2-pointEnd-margin__8b949e)"/><path d="M839.379,712.922L839.933,717.422C840.486,721.922,841.593,730.922,842.147,741.521C842.701,752.12,842.701,764.318,842.701,770.417L842.701,776.516" id="my-svg-L_sbox_ex_sbox_met_0" class="edge-thickness-normal edge-pattern-solid edge-thickness-normal edge-pattern-solid flowchart-link" style="stroke-dasharray: 0 0 59.74337387084961 4; stroke-dashoffset: 0;stroke:#8b949e;stroke-width:1.5px;;;stroke:#8b949e;stroke-width:1.5px" data-edge="true" data-et="edge" data-id="L_sbox_ex_sbox_met_0" data-points="W3sieCI6ODM5LjM3ODg4NDI4NTc5MTUsInkiOjcxMi45MjE4NzV9LHsieCI6ODQyLjcwMDY4MzU5Mzc1LCJ5Ijo3MzkuOTIxODc1fSx7IngiOjg0Mi43MDA2ODM1OTM3NSwieSI6NzgwLjUxNTYyNX1d" data-look="neo" marker-end="url(#my-svg_flowchart-v2-pointEnd-margin__8b949e)"/><path d="M1063.135,260.526L1099.867,268.237C1136.6,275.949,1210.064,291.373,1246.796,303.585C1283.529,315.797,1283.529,324.797,1283.529,333.797C1283.529,342.797,1283.529,351.797,1283.529,362.396C1283.529,372.995,1283.529,385.193,1283.529,391.292L1283.529,397.391" id="my-svg-L_PostTool_pref_met_0" class="edge-thickness-normal edge-pattern-solid edge-thickness-normal edge-pattern-solid flowchart-link" style="stroke-dasharray: 0 0 299.7533264160156 4; stroke-dashoffset: 0;stroke:#8b949e;stroke-width:1.5px;;;stroke:#8b949e;stroke-width:1.5px" data-edge="true" data-et="edge" data-id="L_PostTool_pref_met_0" data-points="W3sieCI6MTA2My4xMzQ4ODc2OTUzMTI1LCJ5IjoyNjAuNTI1NTA0ODE2MTcwNn0seyJ4IjoxMjgzLjUyODgwODU5Mzc1LCJ5IjozMDYuNzk2ODc1fSx7IngiOjEyODMuNTI4ODA4NTkzNzUsInkiOjMzMy43OTY4NzV9LHsieCI6MTI4My41Mjg4MDg1OTM3NSwieSI6MzYwLjc5Njg3NX0seyJ4IjoxMjgzLjUyODgwODU5Mzc1LCJ5Ijo0MDEuMzkwNjI1fV0=" data-look="neo" marker-end="url(#my-svg_flowchart-v2-pointEnd-margin__8b949e)"/><path d="M1283.529,482.766L1283.529,489.531C1283.529,496.297,1283.529,509.828,1283.529,521.094C1283.529,532.359,1283.529,541.359,1283.529,550.359C1283.529,559.359,1283.529,568.359,1283.529,578.958C1283.529,589.557,1283.529,601.755,1283.529,607.854L1283.529,613.953" id="my-svg-L_pref_met_pref_post_0" class="edge-thickness-normal edge-pattern-solid edge-thickness-normal edge-pattern-solid flowchart-link" style="stroke-dasharray: 0 0 127.18701171875 4; stroke-dashoffset: 0;stroke:#8b949e;stroke-width:1.5px;;;stroke:#8b949e;stroke-width:1.5px" data-edge="true" data-et="edge" data-id="L_pref_met_pref_post_0" data-points="W3sieCI6MTI4My41Mjg4MDg1OTM3NSwieSI6NDgyLjc2NTYyNX0seyJ4IjoxMjgzLjUyODgwODU5Mzc1LCJ5Ijo1MjMuMzU5Mzc1fSx7IngiOjEyODMuNTI4ODA4NTkzNzUsInkiOjU1MC4zNTkzNzV9LHsieCI6MTI4My41Mjg4MDg1OTM3NSwieSI6NTc3LjM1OTM3NX0seyJ4IjoxMjgzLjUyODgwODU5Mzc1LCJ5Ijo2MTcuOTUzMTI1fV0=" data-look="neo" marker-end="url(#my-svg_flowchart-v2-pointEnd-margin__8b949e)"/><path d="M1283.529,699.328L1283.529,706.094C1283.529,712.859,1283.529,726.391,1283.529,736.99C1283.529,747.589,1283.529,755.255,1283.529,759.089L1283.529,762.922" id="my-svg-L_pref_post_pref_learn_0" class="edge-thickness-normal edge-pattern-solid edge-thickness-normal edge-pattern-solid flowchart-link" style="stroke-dasharray: 0 0 59.593994140625 4; stroke-dashoffset: 0;stroke:#8b949e;stroke-width:1.5px;;;stroke:#8b949e;stroke-width:1.5px" data-edge="true" data-et="edge" data-id="L_pref_post_pref_learn_0" data-points="W3sieCI6MTI4My41Mjg4MDg1OTM3NSwieSI6Njk5LjMyODEyNX0seyJ4IjoxMjgzLjUyODgwODU5Mzc1LCJ5Ijo3MzkuOTIxODc1fSx7IngiOjEyODMuNTI4ODA4NTkzNzUsInkiOjc2Ni45MjE4NzV9XQ==" data-look="neo" marker-end="url(#my-svg_flowchart-v2-pointEnd-margin__8b949e)"/><path d="M202.5,279.797L202.5,284.297C202.5,288.797,202.5,297.797,202.5,306.797C202.5,315.797,202.5,324.797,202.5,333.797C202.5,342.797,202.5,351.797,202.5,369.844C202.5,387.891,202.5,414.984,202.5,442.078C202.5,469.172,202.5,496.266,202.5,514.313C202.5,532.359,202.5,541.359,202.5,550.359C202.5,559.359,202.5,568.359,202.5,576.693C202.5,585.026,202.5,592.693,202.5,596.526L202.5,600.359" id="my-svg-L_EndPR_rubr_ver_0" class="edge-thickness-normal edge-pattern-solid edge-thickness-normal edge-pattern-solid flowchart-link" style="stroke-dasharray: 0 0 316.56201171875 4; stroke-dashoffset: 0;stroke:#8b949e;stroke-width:1.5px;;;stroke:#8b949e;stroke-width:1.5px" data-edge="true" data-et="edge" data-id="L_EndPR_rubr_ver_0" data-points="W3sieCI6MjAyLjUsInkiOjI3OS43OTY4NzV9LHsieCI6MjAyLjUsInkiOjMwNi43OTY4NzV9LHsieCI6MjAyLjUsInkiOjMzMy43OTY4NzV9LHsieCI6MjAyLjUsInkiOjM2MC43OTY4NzV9LHsieCI6MjAyLjUsInkiOjQ0Mi4wNzgxMjV9LHsieCI6MjAyLjUsInkiOjUyMy4zNTkzNzV9LHsieCI6MjAyLjUsInkiOjU1MC4zNTkzNzV9LHsieCI6MjAyLjUsInkiOjU3Ny4zNTkzNzV9LHsieCI6MjAyLjUsInkiOjYwNC4zNTkzNzV9XQ==" data-look="neo" marker-end="url(#my-svg_flowchart-v2-pointEnd-margin__8b949e)"/><path d="M153.081,712.922L148.984,717.422C144.888,721.922,136.694,730.922,132.597,741.521C128.5,752.12,128.5,764.318,128.5,770.417L128.5,776.516" id="my-svg-L_rubr_ver_rubr_met_0" class="edge-thickness-normal edge-pattern-solid edge-thickness-normal edge-pattern-solid flowchart-link" style="stroke-dasharray: 0 0 66.85311889648438 4; stroke-dashoffset: 0;stroke:#8b949e;stroke-width:1.5px;;;stroke:#8b949e;stroke-width:1.5px" data-edge="true" data-et="edge" data-id="L_rubr_ver_rubr_met_0" data-points="W3sieCI6MTUzLjA4MTMxNDg3ODg5MjczLCJ5Ijo3MTIuOTIxODc1fSx7IngiOjEyOC41LCJ5Ijo3MzkuOTIxODc1fSx7IngiOjEyOC41LCJ5Ijo3ODAuNTE1NjI1fV0=" data-look="neo" marker-end="url(#my-svg_flowchart-v2-pointEnd-margin__8b949e)"/><path d="M233.554,712.922L236.128,717.422C238.702,721.922,243.851,730.922,246.426,748.969C249,767.016,249,794.109,249,821.203C249,848.297,249,875.391,249,893.438C249,911.484,249,920.484,338.019,942.595C427.038,964.706,605.075,999.928,694.094,1017.539L783.113,1035.15" id="my-svg-L_rubr_ver_Bus_0" class="edge-thickness-normal edge-pattern-solid edge-thickness-normal edge-pattern-solid flowchart-link" style="stroke-dasharray: 0 0 743.4046630859375 4; stroke-dashoffset: 0;stroke:#8b949e;stroke-width:1.5px;;;stroke:#8b949e;stroke-width:1.5px" data-edge="true" data-et="edge" data-id="L_rubr_ver_Bus_0" data-points="W3sieCI6MjMzLjU1MzYzMzIxNzk5MzA4LCJ5Ijo3MTIuOTIxODc1fSx7IngiOjI0OSwieSI6NzM5LjkyMTg3NX0seyJ4IjoyNDksInkiOjgyMS4yMDMxMjV9LHsieCI6MjQ5LCJ5Ijo5MDIuNDg0Mzc1fSx7IngiOjI0OSwieSI6OTI5LjQ4NDM3NX0seyJ4Ijo3ODcuMDM2NjIxMDkzNzUsInkiOjEwMzUuOTI2MjY1OTEzOTc5M31d" data-look="neo" marker-end="url(#my-svg_flowchart-v2-pointEnd-margin__8b949e)"/><path d="M919.966,712.922L927.2,717.422C934.435,721.922,948.904,730.922,956.138,748.969C963.373,767.016,963.373,794.109,963.373,821.203C963.373,848.297,963.373,875.391,963.373,893.438C963.373,911.484,963.373,920.484,961.556,928.88C959.739,937.276,956.106,945.068,954.289,948.963L952.473,952.859" id="my-svg-L_sbox_ex_Bus_0" class="edge-thickness-normal edge-pattern-solid edge-thickness-normal edge-pattern-solid flowchart-link" style="stroke-dasharray: 0 0 254.6087646484375 4; stroke-dashoffset: 0;stroke:#8b949e;stroke-width:1.5px;;;stroke:#8b949e;stroke-width:1.5px" data-edge="true" data-et="edge" data-id="L_sbox_ex_Bus_0" data-points="W3sieCI6OTE5Ljk2NTk4NDE5OTI4NjQsInkiOjcxMi45MjE4NzV9LHsieCI6OTYzLjM3MjU1ODU5Mzc1LCJ5Ijo3MzkuOTIxODc1fSx7IngiOjk2My4zNzI1NTg1OTM3NSwieSI6ODIxLjIwMzEyNX0seyJ4Ijo5NjMuMzcyNTU4NTkzNzUsInkiOjkwMi40ODQzNzV9LHsieCI6OTYzLjM3MjU1ODU5Mzc1LCJ5Ijo5MjkuNDg0Mzc1fSx7IngiOjk1MC43ODIyMzEzMzg1ODc2LCJ5Ijo5NTYuNDg0Mzc1fV0=" data-look="neo" marker-end="url(#my-svg_flowchart-v2-pointEnd-margin__8b949e)"/><path d="M1283.529,875.484L1283.529,879.984C1283.529,884.484,1283.529,893.484,1283.529,902.484C1283.529,911.484,1283.529,920.484,1240.078,939.76C1196.627,959.036,1109.725,988.588,1066.275,1003.364L1022.824,1018.14" id="my-svg-L_pref_learn_Bus_0" class="edge-thickness-normal edge-pattern-solid edge-thickness-normal edge-pattern-solid flowchart-link" style="stroke-dasharray: 0 0 314.68292236328125 4; stroke-dashoffset: 0;stroke:#8b949e;stroke-width:1.5px;;;stroke:#8b949e;stroke-width:1.5px" data-edge="true" data-et="edge" data-id="L_pref_learn_Bus_0" data-points="W3sieCI6MTI4My41Mjg4MDg1OTM3NSwieSI6ODc1LjQ4NDM3NX0seyJ4IjoxMjgzLjUyODgwODU5Mzc1LCJ5Ijo5MDIuNDg0Mzc1fSx7IngiOjEyODMuNTI4ODA4NTkzNzUsInkiOjkyOS40ODQzNzV9LHsieCI6MTAxOS4wMzY2MjEwOTM3NSwieSI6MTAxOS40Mjc5MDIyODUyODAyfV0=" data-look="neo" marker-end="url(#my-svg_flowchart-v2-pointEnd-margin__8b949e)"/><path d="M594.544,491.75L582.241,497.018C569.938,502.286,545.332,512.823,533.029,522.591C520.725,532.359,520.725,541.359,520.725,550.359C520.725,559.359,520.725,568.359,520.725,586.406C520.725,604.453,520.725,631.547,520.725,658.641C520.725,685.734,520.725,712.828,520.799,731.339C520.872,749.849,521.019,759.776,521.093,764.74L521.166,769.704" id="my-svg-L_core_find_Query_0" class="edge-thickness-normal edge-pattern-solid edge-thickness-normal edge-pattern-solid flowchart-link" style="stroke-dasharray: 0 0 316.128173828125 4; stroke-dashoffset: 0;stroke:#8b949e;stroke-width:1.5px;;;stroke:#8b949e;stroke-width:1.5px" data-edge="true" data-et="edge" data-id="L_core_find_Query_0" data-points="W3sieCI6NTk0LjU0NDQzMzU5Mzc1LCJ5Ijo0OTEuNzQ5NzYxODc2NzAzMzZ9LHsieCI6NTIwLjcyNTM0MTc5Njg3NSwieSI6NTIzLjM1OTM3NX0seyJ4Ijo1MjAuNzI1MzQxNzk2ODc1LCJ5Ijo1NTAuMzU5Mzc1fSx7IngiOjUyMC43MjUzNDE3OTY4NzUsInkiOjU3Ny4zNTkzNzV9LHsieCI6NTIwLjcyNTM0MTc5Njg3NSwieSI6NjU4LjY0MDYyNX0seyJ4Ijo1MjAuNzI1MzQxNzk2ODc1LCJ5Ijo3MzkuOTIxODc1fSx7IngiOjUyMS4yMjUzNDE3OTY4NzUsInkiOjc3My43MDMxMjV9XQ==" data-look="neo" marker-end="url(#my-svg_flowchart-v2-pointEnd-margin__8b949e)"/><path d="M789.96,712.922L786.417,717.422C782.874,721.922,775.787,730.922,750.641,742.61C725.495,754.299,682.29,768.676,660.687,775.864L639.084,783.052" id="my-svg-L_sbox_ex_Query_0" class="edge-thickness-normal edge-pattern-solid edge-thickness-normal edge-pattern-solid flowchart-link" style="stroke-dasharray: 0 0 164.61915588378906 4; stroke-dashoffset: 0;stroke:#8b949e;stroke-width:1.5px;;;stroke:#8b949e;stroke-width:1.5px" data-edge="true" data-et="edge" data-id="L_sbox_ex_Query_0" data-points="W3sieCI6Nzg5Ljk2MDE5OTE2NDY4NDIsInkiOjcxMi45MjE4NzV9LHsieCI6NzY4LjcwMDY4MzU5Mzc1LCJ5Ijo3MzkuOTIxODc1fSx7IngiOjYzNS4yODkwNDgzNzI4NTUyLCJ5Ijo3ODQuMzE1MzcyNzIyMTAxMn1d" data-look="neo" marker-end="url(#my-svg_flowchart-v2-pointEnd-margin__8b949e)"/><path d="M1245.986,699.328L1239.743,706.094C1233.5,712.859,1221.014,726.391,1122.461,744.158C1023.908,761.924,839.288,783.927,746.978,794.928L654.668,805.93" id="my-svg-L_pref_post_Query_0" class="edge-thickness-normal edge-pattern-solid edge-thickness-normal edge-pattern-solid flowchart-link" style="stroke-dasharray: 0 0 601.8785400390625 4; stroke-dashoffset: 0;stroke:#8b949e;stroke-width:1.5px;;;stroke:#8b949e;stroke-width:1.5px" data-edge="true" data-et="edge" data-id="L_pref_post_Query_0" data-points="W3sieCI6MTI0NS45ODU1NTU5OTg1OTQyLCJ5Ijo2OTkuMzI4MTI1fSx7IngiOjEyMDguNTI4ODA4NTkzNzUsInkiOjczOS45MjE4NzV9LHsieCI6NjUwLjY5NTkyMjkyODc2NDMsInkiOjgwNi40MDI5MjQ4OTgzMTI4fV0=" data-look="neo" marker-end="url(#my-svg_flowchart-v2-pointEnd-margin__8b949e)"/><path d="M256.093,712.922L260.535,717.422C264.978,721.922,273.864,730.922,298.642,742.421C323.42,753.919,364.091,767.917,384.426,774.916L404.761,781.914" id="my-svg-L_rubr_ver_Query_0" class="edge-thickness-normal edge-pattern-solid edge-thickness-normal edge-pattern-solid flowchart-link" style="stroke-dasharray: 0 0 161.43228149414062 4; stroke-dashoffset: 0;stroke:#8b949e;stroke-width:1.5px;;;stroke:#8b949e;stroke-width:1.5px" data-edge="true" data-et="edge" data-id="L_rubr_ver_Query_0" data-points="W3sieCI6MjU2LjA5MjU2MDU1MzYzMzIzLCJ5Ijo3MTIuOTIxODc1fSx7IngiOjI4Mi43NSwieSI6NzM5LjkyMTg3NX0seyJ4Ijo0MDguNTQzMzQxMTI3NTEzNDMsInkiOjc4My4yMTYyMjIxMjI3OTI2fV0=" data-look="neo" marker-end="url(#my-svg_flowchart-v2-pointEnd-margin__8b949e)"/><path d="M983.455,126.797Z" id="my-svg-L_TitleBlock_sources_0" class="edge-thickness-invisible edge-pattern-solid" style="stroke-dasharray: 0 0 0 0; stroke-dashoffset: 0;stroke:#8b949e;stroke-width:1.5px;;;stroke:#8b949e;stroke-width:1.5px" data-edge="true" data-et="edge" data-id="L_TitleBlock_sources_0" data-points="W3sieCI6OTgzLjQ1NTIwMDE5NTMxMjUsInkiOjEyNi43OTY4NzV9LHsieCI6OTgzLjQ1NTIwMDE5NTMxMjUsInkiOjE1My43OTY4NzV9LHsieCI6OTgzLjQ1NTIwMDE5NTMxMjUsInkiOjE4MC43OTY4NzV9LHsieCI6OTgzLjQ1NTIwMDE5NTMxMjUsInkiOjIwNy43OTY4NzV9XQ==" data-look="neo"/></g><g class="edgeLabels"><g class="edgeLabel"><g class="label" data-id="L_PostTool_core_find_0" transform="translate(0, 0)"><foreignObject width="0" height="0"><div xmlns="http://www.w3.org/1999/xhtml" class="labelBkg" style="display: table-cell; white-space: nowrap; line-height: 1.5; max-width: 200px; text-align: center;"><span class="edgeLabel"></span></div></foreignObject></g></g><g class="edgeLabel"><g class="label" data-id="L_PostTool_core_met_0" transform="translate(0, 0)"><foreignObject width="0" height="0"><div xmlns="http://www.w3.org/1999/xhtml" class="labelBkg" style="display: table-cell; white-space: nowrap; line-height: 1.5; max-width: 200px; text-align: center;"><span class="edgeLabel"></span></div></foreignObject></g></g><g class="edgeLabel"><g class="label" data-id="L_core_find_sbox_ex_0" transform="translate(0, 0)"><foreignObject width="0" height="0"><div xmlns="http://www.w3.org/1999/xhtml" class="labelBkg" style="display: table-cell; white-space: nowrap; line-height: 1.5; max-width: 200px; text-align: center;"><span class="edgeLabel"></span></div></foreignObject></g></g><g class="edgeLabel"><g class="label" data-id="L_sbox_ex_sbox_met_0" transform="translate(0, 0)"><foreignObject width="0" height="0"><div xmlns="http://www.w3.org/1999/xhtml" class="labelBkg" style="display: table-cell; white-space: nowrap; line-height: 1.5; max-width: 200px; text-align: center;"><span class="edgeLabel"></span></div></foreignObject></g></g><g class="edgeLabel"><g class="label" data-id="L_PostTool_pref_met_0" transform="translate(0, 0)"><foreignObject width="0" height="0"><div xmlns="http://www.w3.org/1999/xhtml" class="labelBkg" style="display: table-cell; white-space: nowrap; line-height: 1.5; max-width: 200px; text-align: center;"><span class="edgeLabel"></span></div></foreignObject></g></g><g class="edgeLabel"><g class="label" data-id="L_pref_met_pref_post_0" transform="translate(0, 0)"><foreignObject width="0" height="0"><div xmlns="http://www.w3.org/1999/xhtml" class="labelBkg" style="display: table-cell; white-space: nowrap; line-height: 1.5; max-width: 200px; text-align: center;"><span class="edgeLabel"></span></div></foreignObject></g></g><g class="edgeLabel"><g class="label" data-id="L_pref_post_pref_learn_0" transform="translate(0, 0)"><foreignObject width="0" height="0"><div xmlns="http://www.w3.org/1999/xhtml" class="labelBkg" style="display: table-cell; white-space: nowrap; line-height: 1.5; max-width: 200px; text-align: center;"><span class="edgeLabel"></span></div></foreignObject></g></g><g class="edgeLabel"><g class="label" data-id="L_EndPR_rubr_ver_0" transform="translate(0, 0)"><foreignObject width="0" height="0"><div xmlns="http://www.w3.org/1999/xhtml" class="labelBkg" style="display: table-cell; white-space: nowrap; line-height: 1.5; max-width: 200px; text-align: center;"><span class="edgeLabel"></span></div></foreignObject></g></g><g class="edgeLabel"><g class="label" data-id="L_rubr_ver_rubr_met_0" transform="translate(0, 0)"><foreignObject width="0" height="0"><div xmlns="http://www.w3.org/1999/xhtml" class="labelBkg" style="display: table-cell; white-space: nowrap; line-height: 1.5; max-width: 200px; text-align: center;"><span class="edgeLabel"></span></div></foreignObject></g></g><g class="edgeLabel"><g class="label" data-id="L_rubr_ver_Bus_0" transform="translate(0, 0)"><foreignObject width="0" height="0"><div xmlns="http://www.w3.org/1999/xhtml" class="labelBkg" style="display: table-cell; white-space: nowrap; line-height: 1.5; max-width: 200px; text-align: center;"><span class="edgeLabel"></span></div></foreignObject></g></g><g class="edgeLabel"><g class="label" data-id="L_sbox_ex_Bus_0" transform="translate(0, 0)"><foreignObject width="0" height="0"><div xmlns="http://www.w3.org/1999/xhtml" class="labelBkg" style="display: table-cell; white-space: nowrap; line-height: 1.5; max-width: 200px; text-align: center;"><span class="edgeLabel"></span></div></foreignObject></g></g><g class="edgeLabel"><g class="label" data-id="L_pref_learn_Bus_0" transform="translate(0, 0)"><foreignObject width="0" height="0"><div xmlns="http://www.w3.org/1999/xhtml" class="labelBkg" style="display: table-cell; white-space: nowrap; line-height: 1.5; max-width: 200px; text-align: center;"><span class="edgeLabel"></span></div></foreignObject></g></g><g class="edgeLabel"><g class="label" data-id="L_core_find_Query_0" transform="translate(0, 0)"><foreignObject width="0" height="0"><div xmlns="http://www.w3.org/1999/xhtml" class="labelBkg" style="display: table-cell; white-space: nowrap; line-height: 1.5; max-width: 200px; text-align: center;"><span class="edgeLabel"></span></div></foreignObject></g></g><g class="edgeLabel"><g class="label" data-id="L_sbox_ex_Query_0" transform="translate(0, 0)"><foreignObject width="0" height="0"><div xmlns="http://www.w3.org/1999/xhtml" class="labelBkg" style="display: table-cell; white-space: nowrap; line-height: 1.5; max-width: 200px; text-align: center;"><span class="edgeLabel"></span></div></foreignObject></g></g><g class="edgeLabel"><g class="label" data-id="L_pref_post_Query_0" transform="translate(0, 0)"><foreignObject width="0" height="0"><div xmlns="http://www.w3.org/1999/xhtml" class="labelBkg" style="display: table-cell; white-space: nowrap; line-height: 1.5; max-width: 200px; text-align: center;"><span class="edgeLabel"></span></div></foreignObject></g></g><g class="edgeLabel"><g class="label" data-id="L_rubr_ver_Query_0" transform="translate(0, 0)"><foreignObject width="0" height="0"><div xmlns="http://www.w3.org/1999/xhtml" class="labelBkg" style="display: table-cell; white-space: nowrap; line-height: 1.5; max-width: 200px; text-align: center;"><span class="edgeLabel"></span></div></foreignObject></g></g><g class="edgeLabel"><g class="label" data-id="L_TitleBlock_sources_0" transform="translate(0, 0)"><foreignObject width="0" height="0"><div xmlns="http://www.w3.org/1999/xhtml" class="labelBkg" style="display: table-cell; white-space: nowrap; line-height: 1.5; max-width: 200px; text-align: center;"><span class="edgeLabel"></span></div></foreignObject></g></g></g><g class="nodes"><g class="node default titleBlock" id="my-svg-flowchart-TitleBlock-0" data-look="neo" transform="translate(983.4552001953125, 75.3984375)"><rect class="basic label-container" style="fill:#06111f !important;stroke:#1e3a5f !important;stroke-width:1px !important;rx:4 !important;ry:4 !important" x="-496" y="-51.3984375" width="992" height="102.796875"/><g class="label" style="color:#e6edf3 !important" transform="translate(-480, -39.3984375)"><rect/><foreignObject width="960" height="78.796875"><div style="color: rgb(230, 237, 243) !important; display: table; white-space: break-spaces; line-height: 1.5; max-width: 200px; text-align: center; width: 200px;" xmlns="http://www.w3.org/1999/xhtml"><span style="color:#e6edf3 !important" class="nodeLabel"><p></p><div style="font-family:ui-monospace,SFMono-Regular,Consolas,monospace;text-align:center;min-width:940px;padding:6px 10px;line-height:1.8"><div style="color:&amp;58a6ff;font-size:15px;letter-spacing:6px;border-bottom:1px solid &amp;1e3a5f;padding-bottom:10px;margin-bottom:10px">MANTIS  ·  STATE FLOW  ·  REVIEW JOURNALS</div><div style="display:flex;gap:40px;justify-content:center;font-size:11px;color:&amp;8b949e;letter-spacing:2px"><span>DWG  <b style="color:#e6edf3">MNT-003</b></span><span>REV  <b style="color:#e6edf3">A.1</b></span><span>SCALE  <b style="color:#e6edf3">1:1</b></span><span>JOURNALS  <b style="color:#e6edf3">n = 4</b></span><span>SHEET  <b style="color:#e6edf3">01 / 01</b></span></div></div><p></p></span></div></foreignObject></g></g><g class="node default sourceNode" id="my-svg-flowchart-PostTool-1" data-look="neo" transform="translate(983.4552001953125, 243.796875)"><rect class="basic label-container" style="fill:#0a1628 !important;stroke:#1e3a5f !important;stroke-width:1.5px !important;rx:8 !important;ry:8 !important" x="-79.6796875" y="-36" width="159.359375" height="72"/><g class="label" style="color:#e6edf3 !important" transform="translate(-63.6796875, -24)"><rect/><foreignObject width="127.359375" height="48"><div style="color: rgb(230, 237, 243) !important; display: table-cell; white-space: nowrap; line-height: 1.5; max-width: 200px; text-align: center;" xmlns="http://www.w3.org/1999/xhtml"><span style="color:#e6edf3 !important" class="nodeLabel"><p><b>PostToolUse</b><br /><small style="color:#6e7681">Write · Edit · MultiEdit</small></p></span></div></foreignObject></g></g><g class="node default sourceNode" id="my-svg-flowchart-EndPR-2" data-look="neo" transform="translate(202.5, 243.796875)"><rect class="basic label-container" style="fill:#0a1628 !important;stroke:#1e3a5f !important;stroke-width:1.5px !important;rx:8 !important;ry:8 !important" x="-59.78125" y="-36" width="119.5625" height="72"/><g class="label" style="color:#e6edf3 !important" transform="translate(-43.78125, -24)"><rect/><foreignObject width="87.5625" height="48"><div style="color: rgb(230, 237, 243) !important; display: table-cell; white-space: nowrap; line-height: 1.5; max-width: 200px; text-align: center;" xmlns="http://www.w3.org/1999/xhtml"><span style="color:#e6edf3 !important" class="nodeLabel"><p><b>end of PR</b><br /><small style="color:#6e7681">/lich-review</small></p></span></div></foreignObject></g></g><g class="node default journalLine" id="my-svg-flowchart-core_find-3" data-look="neo" transform="translate(710.54443359375, 442.078125)"><rect class="basic label-container" style="fill:#0a1628 !important;stroke:#1e3a5f !important;stroke-width:1px !important;rx:6 !important;ry:6 !important" x="-116" y="-54.28125" width="232" height="108.5625"/><g class="label" style="color:#c9d1d9 !important" transform="translate(-100, -42.28125)"><rect/><foreignObject width="200" height="84.5625"><div style="color: rgb(201, 209, 217) !important; display: table; white-space: break-spaces; line-height: 1.5; max-width: 200px; text-align: center; width: 200px;" xmlns="http://www.w3.org/1999/xhtml"><span style="color:#c9d1d9 !important" class="nodeLabel"><p></p><div style="text-align:center;line-height:1.7"><code>findings.jsonl</code><br /><small style="color:#6e7681">M1+M2 flagged hunks · interval + diff cluster</small></div><p></p></span></div></foreignObject></g></g><g class="node default journalLine" id="my-svg-flowchart-core_met-4" data-look="neo" transform="translate(977.03662109375, 442.078125)"><rect class="basic label-container" style="fill:#0a1628 !important;stroke:#1e3a5f !important;stroke-width:1px !important;rx:6 !important;ry:6 !important" x="-106.4921875" y="-40.6875" width="212.984375" height="81.375"/><g class="label" style="color:#c9d1d9 !important" transform="translate(-90.4921875, -28.6875)"><rect/><foreignObject width="180.984375" height="57.375"><div style="color: rgb(201, 209, 217) !important; display: table-cell; white-space: nowrap; line-height: 1.5; max-width: 200px; text-align: center;" xmlns="http://www.w3.org/1999/xhtml"><span style="color:#c9d1d9 !important" class="nodeLabel"><p></p><div style="text-align:center;line-height:1.7"><code>metrics.jsonl</code><br /><small style="color:#6e7681">per-scan timing + hunk counts</small></div><p></p></span></div></foreignObject></g></g><g class="node default journalLine" id="my-svg-flowchart-sbox_ex-5" data-look="neo" transform="translate(832.70068359375, 658.640625)"><rect class="basic label-container" style="fill:#0a1628 !important;stroke:#1e3a5f !important;stroke-width:1px !important;rx:6 !important;ry:6 !important" x="-116" y="-54.28125" width="232" height="108.5625"/><g class="label" style="color:#c9d1d9 !important" transform="translate(-100, -42.28125)"><rect/><foreignObject width="200" height="84.5625"><div style="color: rgb(201, 209, 217) !important; display: table; white-space: break-spaces; line-height: 1.5; max-width: 200px; text-align: center; width: 200px;" xmlns="http://www.w3.org/1999/xhtml"><span style="color:#c9d1d9 !important" class="nodeLabel"><p></p><div style="text-align:center;line-height:1.7"><code>executions.jsonl</code><br /><small style="color:#6e7681">M5 sandbox runs · exit code · rlimit + exceptions</small></div><p></p></span></div></foreignObject></g></g><g class="node default journalLine" id="my-svg-flowchart-sbox_met-6" data-look="neo" transform="translate(842.70068359375, 821.203125)"><rect class="basic label-container" style="fill:#0a1628 !important;stroke:#1e3a5f !important;stroke-width:1px !important;rx:6 !important;ry:6 !important" x="-88.671875" y="-40.6875" width="177.34375" height="81.375"/><g class="label" style="color:#c9d1d9 !important" transform="translate(-72.671875, -28.6875)"><rect/><foreignObject width="145.34375" height="57.375"><div style="color: rgb(201, 209, 217) !important; display: table-cell; white-space: nowrap; line-height: 1.5; max-width: 200px; text-align: center;" xmlns="http://www.w3.org/1999/xhtml"><span style="color:#c9d1d9 !important" class="nodeLabel"><p></p><div style="text-align:center;line-height:1.7"><code>metrics.jsonl</code><br /><small style="color:#6e7681">run counts + avg latency</small></div><p></p></span></div></foreignObject></g></g><g class="node default journalLine" id="my-svg-flowchart-pref_post-7" data-look="neo" transform="translate(1283.52880859375, 658.640625)"><rect class="basic label-container" style="fill:#0a1628 !important;stroke:#1e3a5f !important;stroke-width:1px !important;rx:6 !important;ry:6 !important" x="-94" y="-40.6875" width="188" height="81.375"/><g class="label" style="color:#c9d1d9 !important" transform="translate(-78, -28.6875)"><rect/><foreignObject width="156" height="57.375"><div style="color: rgb(201, 209, 217) !important; display: table-cell; white-space: nowrap; line-height: 1.5; max-width: 200px; text-align: center;" xmlns="http://www.w3.org/1999/xhtml"><span style="color:#c9d1d9 !important" class="nodeLabel"><p></p><div style="text-align:center;line-height:1.7"><code>posteriors.json</code><br /><small style="color:#6e7681">M6 per-(dev,rule) Beta α/β</small></div><p></p></span></div></foreignObject></g></g><g class="node default journalLine" id="my-svg-flowchart-pref_learn-8" data-look="neo" transform="translate(1283.52880859375, 821.203125)"><rect class="basic label-container" style="fill:#0a1628 !important;stroke:#1e3a5f !important;stroke-width:1px !important;rx:6 !important;ry:6 !important" x="-116" y="-54.28125" width="232" height="108.5625"/><g class="label" style="color:#c9d1d9 !important" transform="translate(-100, -42.28125)"><rect/><foreignObject width="200" height="84.5625"><div style="color: rgb(201, 209, 217) !important; display: table; white-space: break-spaces; line-height: 1.5; max-width: 200px; text-align: center; width: 200px;" xmlns="http://www.w3.org/1999/xhtml"><span style="color:#c9d1d9 !important" class="nodeLabel"><p></p><div style="text-align:center;line-height:1.7"><code>learnings.json</code><br /><small style="color:#6e7681">cross-session · α=0.05 slow accumulator</small></div><p></p></span></div></foreignObject></g></g><g class="node default journalLine" id="my-svg-flowchart-pref_met-9" data-look="neo" transform="translate(1283.52880859375, 442.078125)"><rect class="basic label-container" style="fill:#0a1628 !important;stroke:#1e3a5f !important;stroke-width:1px !important;rx:6 !important;ry:6 !important" x="-78.4140625" y="-40.6875" width="156.828125" height="81.375"/><g class="label" style="color:#c9d1d9 !important" transform="translate(-62.4140625, -28.6875)"><rect/><foreignObject width="124.828125" height="57.375"><div style="color: rgb(201, 209, 217) !important; display: table-cell; white-space: nowrap; line-height: 1.5; max-width: 200px; text-align: center;" xmlns="http://www.w3.org/1999/xhtml"><span style="color:#c9d1d9 !important" class="nodeLabel"><p></p><div style="text-align:center;line-height:1.7"><code>metrics.jsonl</code><br /><small style="color:#6e7681">accept/reject events</small></div><p></p></span></div></foreignObject></g></g><g class="node default journalLine" id="my-svg-flowchart-rubr_ver-10" data-look="neo" transform="translate(202.5, 658.640625)"><rect class="basic label-container" style="fill:#0a1628 !important;stroke:#1e3a5f !important;stroke-width:1px !important;rx:6 !important;ry:6 !important" x="-116" y="-54.28125" width="232" height="108.5625"/><g class="label" style="color:#c9d1d9 !important" transform="translate(-100, -42.28125)"><rect/><foreignObject width="200" height="84.5625"><div style="color: rgb(201, 209, 217) !important; display: table; white-space: break-spaces; line-height: 1.5; max-width: 200px; text-align: center; width: 200px;" xmlns="http://www.w3.org/1999/xhtml"><span style="color:#c9d1d9 !important" class="nodeLabel"><p></p><div style="text-align:center;line-height:1.7"><code>verdicts.jsonl</code><br /><small style="color:#6e7681">M7 5-axis scores + Cohen's κ per review</small></div><p></p></span></div></foreignObject></g></g><g class="node default journalLine" id="my-svg-flowchart-rubr_met-11" data-look="neo" transform="translate(128.5, 821.203125)"><rect class="basic label-container" style="fill:#0a1628 !important;stroke:#1e3a5f !important;stroke-width:1px !important;rx:6 !important;ry:6 !important" x="-88.5" y="-40.6875" width="177" height="81.375"/><g class="label" style="color:#c9d1d9 !important" transform="translate(-72.5, -28.6875)"><rect/><foreignObject width="145" height="57.375"><div style="color: rgb(201, 209, 217) !important; display: table-cell; white-space: nowrap; line-height: 1.5; max-width: 200px; text-align: center;" xmlns="http://www.w3.org/1999/xhtml"><span style="color:#c9d1d9 !important" class="nodeLabel"><p></p><div style="text-align:center;line-height:1.7"><code>metrics.jsonl</code><br /><small style="color:#6e7681">rubric invocation metrics</small></div><p></p></span></div></foreignObject></g></g><g class="node default busNode" id="my-svg-flowchart-Bus-12" data-look="neo" transform="translate(903.03662109375, 1058.875)"><rect class="basic label-container" style="fill:#0f1d33 !important;stroke:#79c0ff !important;stroke-width:2px !important;rx:8 !important;ry:8 !important" x="-116" y="-102.390625" width="232" height="204.78125"/><g class="label" style="color:#79c0ff !important" transform="translate(-100, -90.390625)"><rect/><foreignObject width="200" height="180.78125"><div style="color: rgb(121, 192, 255) !important; display: table; white-space: break-spaces; line-height: 1.5; max-width: 200px; text-align: center; width: 200px;" xmlns="http://www.w3.org/1999/xhtml"><span style="color:#79c0ff !important" class="nodeLabel"><p></p><div style="text-align:center;line-height:1.8;padding:4px 12px"><b style="letter-spacing:1.5px;color:#79c0ff">ENCHANTED-MCP BUS</b><br /><em style="color:#8b949efont-size:12px">lich.review.completed · lich.finding.confirmed · lich.rule.suppressed</em></div><p></p></span></div></foreignObject></g></g><g class="node default queryNode" id="my-svg-flowchart-Query-13" data-look="neo" transform="translate(520.725341796875, 821.203125)"><g class="basic label-container outer-path"><path d="M-84 -48 C-35.712698237181144 -48, 12.574603525637713 -48, 84 -48 C84 -48, 84 -48, 84 -48 C84.9621623056864 -47.96914532759195, 85.92432461137281 -47.938290655183906, 87.07537055907422 -47.901378852016144 C87.98698014675993 -47.81343697146304, 88.89858973444565 -47.72549509090993, 90.13810376085628 -47.60592066351582 C91.21919988059538 -47.431137426902026, 92.30029600033448 -47.256354190288235, 93.17561417766586 -47.11483953557114 C94.29656289847364 -46.85899030492078, 95.4175116192814 -46.60314107427042, 96.17542002765634 -46.430153425873414 C97.30531135092677 -46.09480761204733, 98.4352026741972 -45.75946179822125, 99.12519446513379 -45.55467585651209 C99.95358771489676 -45.24981948301606, 100.78198096465974 -44.94496310952003, 102.01281623420996 -44.492004352609044 C103.05303361468152 -44.031530975226524, 104.09325099515308 -43.57105759784401, 104.82641947764279 -43.24650565931612 C105.86298627799016 -42.70572942352762, 106.89955307833753 -42.16495318773912, 107.55444249618901 -41.8232977979227 C108.11389963113736 -41.484151594981945, 108.67335676608572 -41.1450053920412, 110.18567525810633 -40.22822903480835 C111.08049009735737 -39.6040449388569, 111.97530493660842 -38.97986084290546, 112.70930546357837 -38.46785384966192 C113.54265379135151 -37.80328073459319, 114.37600211912466 -37.13870761952445, 115.11496297477383 -36.54940600171846 C115.79478515842868 -35.93200948163244, 116.47460734208353 -35.314612961546416, 117.39276242896734 -34.480768804690925 C117.95668772483778 -33.89846963757686, 118.52061302070823 -33.3161704704628, 119.53334385961514 -32.270442732543216 C120.04858723774176 -31.665208542416927, 120.56383061586838 -31.059974352290638, 121.52791115846543 -29.927510489219213 C122.00838073228557 -29.283725031978857, 122.48885030610573 -28.639939574738502, 123.36826822065387 -27.461599685864154 C124.03277683614623 -26.440736006919906, 124.69728545163859 -25.419872327975657, 125.04685262425662 -24.882843278905206 C125.63442399094838 -23.83955081929135, 126.22199535764015 -22.796258359677495, 126.55676670590401 -22.201837931560092 C126.88593104071327 -21.518321147340146, 127.21509537552255 -20.8348043631202, 127.891805904759 -19.429600469874913 C128.24345655451256 -18.561016566280788, 128.59510720426613 -17.692432662686663, 129.0464842583885 -16.57752261222279 C129.4032703613803 -15.50293971615714, 129.7600564643721 -14.428356820091489, 130.01605694575971 -13.65732415828957 C130.2964630655577 -12.58801409471875, 130.5768691853557 -11.51870403114793, 130.79653978472754 -10.681004829903095 C130.96390742374632 -9.821607376704714, 131.1312750627651 -8.962209923506332, 131.3847256038936 -7.660794961602221 C131.5282556813195 -6.547604024306428, 131.67178575874544 -5.434413087010634, 131.77819742156152 -4.609105243568733 C131.85355552679061 -3.435341926657663, 131.92891363201974 -2.261578609746593, 131.97533837763302 -1.538475723439448 C131.97533837763302 -0.6257315026200915, 131.97533837763302 0.287012718199265, 131.97533837763302 1.5384757234394364 C131.90177716135565 2.6842510445043475, 131.8282159450783 3.8300263655692586, 131.77819742156152 4.609105243568701 C131.6804105160555 5.367521172464791, 131.58262361054946 6.125937101360881, 131.3847256038936 7.660794961602187 C131.15027820492904 8.86463280480999, 130.91583080596445 10.068470648017792, 130.79653978472754 10.681004829903085 C130.5385955500166 11.664657990594376, 130.28065131530568 12.64831115128567, 130.01605694575971 13.657324158289539 C129.64754542492534 14.767222144705338, 129.279033904091 15.877120131121139, 129.0464842583885 16.577522612222758 C128.74320287351293 17.326633496412107, 128.43992148863734 18.075744380601453, 127.891805904759 19.429600469874902 C127.55491557433598 20.129160449296617, 127.21802524391298 20.828720428718327, 126.55676670590401 22.201837931560082 C125.95553852616595 23.2693794456399, 125.35431034642791 24.336920959719713, 125.04685262425662 24.8828432789052 C124.54879719003316 25.647990172482803, 124.05074175580971 26.41313706606041, 123.36826822065389 27.46159968586413 C122.85833521517546 28.14486345735275, 122.34840220969701 28.828127228841364, 121.52791115846543 29.927510489219202 C120.97068852790669 30.58205589793939, 120.41346589734795 31.236601306659583, 119.53334385961516 32.27044273254319 C118.77013609697637 33.05851740799037, 118.00692833433759 33.846592083437564, 117.39276242896736 34.48076880469091 C116.58490345931418 35.2144449461529, 115.77704448966098 35.948121087614894, 115.11496297477387 36.549406001718424 C114.19566705374936 37.282520035243614, 113.27637113272485 38.015634068768804, 112.70930546357837 38.467853849661914 C112.0580075718784 38.92217106468049, 111.40670968017844 39.37648827969907, 110.18567525810636 40.22822903480834 C109.51682761460381 40.63368840688462, 108.84797997110127 41.03914777896091, 107.55444249618901 41.82329779792269 C106.79758685645731 42.21814890038154, 106.04073121672563 42.613000002840394, 104.8264194776428 43.246505659316114 C103.97304867371895 43.62426759986773, 103.11967786979508 44.002029540419336, 102.01281623420998 44.49200435260904 C100.87449954599428 44.91091541635653, 99.73618285777859 45.329826480104025, 99.12519446513383 45.554675856512084 C98.35028104348264 45.7846660924546, 97.57536762183145 46.01465632839712, 96.1754200276564 46.4301534258734 C95.25749298284059 46.639664283818846, 94.33956593802478 46.84917514176429, 93.17561417766589 47.114839535571136 C92.30777752918875 47.255144634723194, 91.4399408807116 47.39544973387525, 90.13810376085631 47.60592066351581 C89.37795637475894 47.67925116764164, 88.61780898866157 47.752581671767466, 87.07537055907422 47.901378852016144 C86.25468431860567 47.92769666237911, 85.43399807813711 47.954014472742074, 84.00000000000001 48 C84.00000000000001 48, 84 48, 84 48 C43.4637069395626 48, 2.927413879125197 48, -83.99999999999999 48 C-84.8131737249078 47.97392310138884, -85.62634744981563 47.94784620277768, -87.0753705590742 47.901378852016144 C-87.69474848317854 47.84162820858874, -88.31412640728288 47.78187756516133, -90.1381037608563 47.60592066351581 C-91.28054511407485 47.42121960529245, -92.42298646729343 47.23651854706909, -93.17561417766586 47.114839535571136 C-94.22653938893556 46.87497271402674, -95.27746460020526 46.63510589248234, -96.17542002765634 46.430153425873414 C-97.1396447918434 46.14397657718177, -98.10386955603045 45.85779972849012, -99.12519446513377 45.554675856512105 C-100.21127276741477 45.15498900167493, -101.29735106969576 44.75530214683775, -102.01281623420996 44.492004352609044 C-102.59631188139463 44.23370813838379, -103.17980752857927 43.975411924158536, -104.82641947764279 43.24650565931613 C-105.79948555199286 42.73885771160626, -106.77255162634295 42.23120976389639, -107.554442496189 41.823297797922706 C-108.474164132482 41.26575713711762, -109.393885768775 40.70821647631253, -110.1856752581063 40.22822903480837 C-110.97550987228152 39.67727459934912, -111.76534448645673 39.12632016388987, -112.70930546357836 38.46785384966192 C-113.59101275892297 37.76471574484112, -114.47272005426757 37.061577640020325, -115.11496297477383 36.54940600171847 C-115.57905085543968 36.1279336675902, -116.04313873610552 35.70646133346193, -117.39276242896733 34.480768804690946 C-118.07410513834552 33.77722651798119, -118.75544784772372 33.073684231271436, -119.53334385961514 32.2704427325432 C-120.22782178313382 31.45466944666485, -120.92229970665251 30.6388961607865, -121.52791115846543 29.927510489219216 C-122.03667374089613 29.245814977986825, -122.54543632332684 28.564119466754434, -123.36826822065387 27.461599685864158 C-123.97176277450697 26.534469990167413, -124.57525732836007 25.607340294470664, -125.04685262425659 24.882843278905227 C-125.42723870734213 24.207429270119178, -125.80762479042765 23.53201526133313, -126.556766705904 22.2018379315601 C-126.88603885708451 21.518097264338362, -127.21531100826503 20.834356597116628, -127.891805904759 19.42960046987492 C-128.24976974352856 18.54542286735408, -128.60773358229812 17.66124526483324, -129.0464842583885 16.577522612222793 C-129.40797964794913 15.488756095334727, -129.76947503750978 14.399989578446661, -130.01605694575971 13.657324158289558 C-130.29372457337212 12.59845715229242, -130.57139220098452 11.539590146295282, -130.79653978472754 10.681004829903102 C-130.95976440129647 9.842880921356592, -131.1229890178654 9.00475701281008, -131.3847256038936 7.660794961602226 C-131.48093309767734 6.91462863813412, -131.57714059146107 6.168462314666013, -131.77819742156152 4.60910524356876 C-131.85659817821792 3.3879501746934375, -131.93499893487433 2.1667951058181147, -131.97533837763302 1.538475723439454 C-131.97533837763302 0.5869481957566635, -131.97533837763302 -0.364579331926127, -131.97533837763302 -1.5384757234394306 C-131.92433333426982 -2.332920444351507, -131.87332829090658 -3.127365165263583, -131.77819742156152 -4.6091052435686946 C-131.66336024587855 -5.499759701000534, -131.54852307019556 -6.390414158432375, -131.3847256038936 -7.660794961602203 C-131.26296277048198 -8.286021376586918, -131.14119993707035 -8.911247791571633, -130.79653978472754 -10.681004829903081 C-130.60760961637573 -11.40147744468147, -130.4186794480239 -12.12195005945986, -130.01605694575971 -13.657324158289534 C-129.7499493208838 -14.458797925923614, -129.4838416960079 -15.260271693557696, -129.04648425838852 -16.577522612222733 C-128.68185566228883 -17.478162294203297, -128.31722706618913 -18.37880197618386, -127.891805904759 -19.429600469874895 C-127.5033915356124 -20.23615121814396, -127.11497716646579 -21.042701966413023, -126.55676670590401 -22.20183793156008 C-126.12091633027511 -22.975734408125536, -125.68506595464619 -23.749630884690998, -125.04685262425662 -24.882843278905213 C-124.47525397800517 -25.760972295275376, -123.90365533175373 -26.63910131164554, -123.36826822065387 -27.461599685864144 C-122.75538203481338 -28.282811339810248, -122.14249584897289 -29.10402299375635, -121.52791115846544 -29.927510489219202 C-120.87918359276115 -30.689542801539677, -120.23045602705685 -31.45157511386015, -119.53334385961517 -32.27044273254319 C-118.96717652394162 -32.85505698982887, -118.40100918826805 -33.43967124711454, -117.39276242896737 -34.480768804690896 C-116.560011166113 -35.237051468224216, -115.72725990325863 -35.993334131757535, -115.11496297477387 -36.549406001718424 C-114.18602186397924 -37.290211817416015, -113.25708075318458 -38.031017633113606, -112.70930546357837 -38.46785384966191 C-112.02358316862826 -38.94618403817939, -111.33786087367814 -39.42451422669688, -110.18567525810636 -40.22822903480834 C-109.43140550475697 -40.685471791869816, -108.67713575140758 -41.142714548931295, -107.55444249618901 -41.823297797922685 C-106.99883988073698 -42.11315532652355, -106.44323726528496 -42.40301285512441, -104.8264194776428 -43.246505659316114 C-103.85057664193447 -43.67848233533497, -102.87473380622613 -44.11045901135383, -102.01281623420998 -44.49200435260903 C-101.16076775216109 -44.80556607025285, -100.30871927011219 -45.11912778789667, -99.12519446513383 -45.554675856512084 C-98.13374913602138 -45.84893162598993, -97.14230380690894 -46.14318739546777, -96.1754200276564 -46.4301534258734 C-95.18909309818949 -46.65527611113949, -94.20276616872258 -46.88039879640559, -93.17561417766589 -47.11483953557113 C-92.5668970738455 -47.21325219624517, -91.95817997002509 -47.31166485691921, -90.13810376085632 -47.60592066351581 C-89.45736239512681 -47.67159096435646, -88.7766210293973 -47.73726126519711, -87.07537055907422 -47.901378852016144 C-86.00178678634498 -47.93580659400352, -84.92820301361573 -47.97023433599091, -84.00000000000001 -48 C-84.00000000000001 -48, -84 -48, -84 -48" stroke="none" stroke-width="0" fill="#0f1d33" style="fill:#0f1d33 !important;stroke:#3fb950 !important;stroke-width:1.5px !important;rx:14 !important;ry:14 !important"/><path d="M-84 -48 C-47.796849091561405 -48, -11.593698183122811 -48, 84 -48 M-84 -48 C-30.477249520239567 -48, 23.045500959520865 -48, 84 -48 M84 -48 C84 -48, 84 -48, 84 -48 M84 -48 C84 -48, 84 -48, 84 -48 M84 -48 C85.04580513519313 -47.966463064850565, 86.09161027038628 -47.93292612970113, 87.07537055907422 -47.901378852016144 M84 -48 C84.80147512648993 -47.97429825267017, 85.60295025297987 -47.948596505340326, 87.07537055907422 -47.901378852016144 M87.07537055907422 -47.901378852016144 C87.79779487959472 -47.831687446657895, 88.52021920011522 -47.761996041299646, 90.13810376085628 -47.60592066351582 M87.07537055907422 -47.901378852016144 C87.85596060106279 -47.82607626946238, 88.63655064305136 -47.75077368690862, 90.13810376085628 -47.60592066351582 M90.13810376085628 -47.60592066351582 C90.98552415786953 -47.46891630557005, 91.83294455488279 -47.33191194762427, 93.17561417766586 -47.11483953557114 M90.13810376085628 -47.60592066351582 C91.288146193773 -47.41999072167411, 92.43818862668972 -47.234060779832404, 93.17561417766586 -47.11483953557114 M93.17561417766586 -47.11483953557114 C94.18124902834259 -46.88530994328487, 95.18688387901932 -46.65578035099858, 96.17542002765634 -46.430153425873414 M93.17561417766586 -47.11483953557114 C94.09226105818847 -46.90562086677177, 95.00890793871108 -46.6964021979724, 96.17542002765634 -46.430153425873414 M96.17542002765634 -46.430153425873414 C96.8360740686279 -46.234074774356884, 97.49672810959946 -46.03799612284035, 99.12519446513379 -45.55467585651209 M96.17542002765634 -46.430153425873414 C97.01114093088346 -46.18211584858414, 97.84686183411058 -45.93407827129487, 99.12519446513379 -45.55467585651209 M99.12519446513379 -45.55467585651209 C100.12479611579622 -45.18681320885196, 101.12439776645863 -44.81895056119182, 102.01281623420996 -44.492004352609044 M99.12519446513379 -45.55467585651209 C99.99061037305343 -45.236194802580705, 100.85602628097307 -44.91771374864932, 102.01281623420996 -44.492004352609044 M102.01281623420996 -44.492004352609044 C102.82758973687908 -44.13132829237465, 103.64236323954819 -43.77065223214025, 104.82641947764279 -43.24650565931612 M102.01281623420996 -44.492004352609044 C102.63528030177622 -44.216457974637976, 103.25774436934248 -43.94091159666691, 104.82641947764279 -43.24650565931612 M104.82641947764279 -43.24650565931612 C105.6782423065941 -42.802110235070785, 106.53006513554541 -42.35771481082545, 107.55444249618901 -41.8232977979227 M104.82641947764279 -43.24650565931612 C105.45591147736738 -42.918100086268666, 106.08540347709199 -42.58969451322122, 107.55444249618901 -41.8232977979227 M107.55444249618901 -41.8232977979227 C108.27991926610444 -41.38350951662524, 109.00539603601986 -40.94372123532778, 110.18567525810633 -40.22822903480835 M107.55444249618901 -41.8232977979227 C108.11329732220797 -41.484516718194506, 108.67215214822691 -41.14573563846632, 110.18567525810633 -40.22822903480835 M110.18567525810633 -40.22822903480835 C110.77935927286022 -39.81410076628282, 111.37304328761412 -39.3999724977573, 112.70930546357837 -38.46785384966192 M110.18567525810633 -40.22822903480835 C111.05988915282553 -39.61841526596181, 111.93410304754472 -39.00860149711526, 112.70930546357837 -38.46785384966192 M112.70930546357837 -38.46785384966192 C113.48754011860817 -37.847232421969586, 114.26577477363794 -37.22661099427725, 115.11496297477383 -36.54940600171846 M112.70930546357837 -38.46785384966192 C113.22192979171353 -38.0590495894804, 113.7345541198487 -37.65024532929889, 115.11496297477383 -36.54940600171846 M115.11496297477383 -36.54940600171846 C115.64616577250523 -36.06698167567465, 116.17736857023664 -35.584557349630835, 117.39276242896734 -34.480768804690925 M115.11496297477383 -36.54940600171846 C115.57278252439566 -36.13362639999342, 116.03060207401748 -35.71784679826837, 117.39276242896734 -34.480768804690925 M117.39276242896734 -34.480768804690925 C117.9905709755953 -33.863482399303095, 118.58837952222326 -33.24619599391527, 119.53334385961514 -32.270442732543216 M117.39276242896734 -34.480768804690925 C118.22533158288559 -33.62107279807157, 119.05790073680383 -32.76137679145222, 119.53334385961514 -32.270442732543216 M119.53334385961514 -32.270442732543216 C120.26080163876195 -31.415929431637117, 120.98825941790875 -30.56141613073102, 121.52791115846543 -29.927510489219213 M119.53334385961514 -32.270442732543216 C120.20578064747617 -31.480560218784483, 120.8782174353372 -30.69067770502575, 121.52791115846543 -29.927510489219213 M121.52791115846543 -29.927510489219213 C121.94371785418984 -29.370367397717764, 122.35952454991425 -28.813224306216313, 123.36826822065387 -27.461599685864154 M121.52791115846543 -29.927510489219213 C122.16317768569203 -29.076311216706774, 122.79844421291864 -28.22511194419434, 123.36826822065387 -27.461599685864154 M123.36826822065387 -27.461599685864154 C123.97103003130675 -26.535595680492037, 124.57379184195965 -25.60959167511992, 125.04685262425662 -24.882843278905206 M123.36826822065387 -27.461599685864154 C123.78152653848686 -26.826723934276338, 124.19478485631984 -26.191848182688524, 125.04685262425662 -24.882843278905206 M125.04685262425662 -24.882843278905206 C125.58061238247684 -23.935098779148795, 126.11437214069707 -22.987354279392385, 126.55676670590401 -22.201837931560092 M125.04685262425662 -24.882843278905206 C125.39230477818079 -24.269457998789058, 125.73775693210497 -23.65607271867291, 126.55676670590401 -22.201837931560092 M126.55676670590401 -22.201837931560092 C127.08180728317252 -21.111579938793344, 127.60684786044102 -20.021321946026596, 127.891805904759 -19.429600469874913 M126.55676670590401 -22.201837931560092 C127.05344923730219 -21.170466027808068, 127.55013176870035 -20.139094124056047, 127.891805904759 -19.429600469874913 M127.891805904759 -19.429600469874913 C128.2430451444605 -18.562032757063484, 128.594284384162 -17.694465044252052, 129.0464842583885 -16.57752261222279 M127.891805904759 -19.429600469874913 C128.15843409559986 -18.771023683592627, 128.4250622864407 -18.112446897310342, 129.0464842583885 -16.57752261222279 M129.0464842583885 -16.57752261222279 C129.4077880296369 -15.48933321916094, 129.7690918008853 -14.401143826099092, 130.01605694575971 -13.65732415828957 M129.0464842583885 -16.57752261222279 C129.302235211716 -15.807241489180967, 129.55798616504353 -15.036960366139146, 130.01605694575971 -13.65732415828957 M130.01605694575971 -13.65732415828957 C130.31445158688226 -12.519416066633793, 130.6128462280048 -11.381507974978016, 130.79653978472754 -10.681004829903095 M130.01605694575971 -13.65732415828957 C130.224466602407 -12.86256781217694, 130.43287625905427 -12.067811466064308, 130.79653978472754 -10.681004829903095 M130.79653978472754 -10.681004829903095 C130.99972077880147 -9.637713367651752, 131.2029017728754 -8.594421905400411, 131.3847256038936 -7.660794961602221 M130.79653978472754 -10.681004829903095 C131.00916555268236 -9.589216449927006, 131.2217913206372 -8.497428069950919, 131.3847256038936 -7.660794961602221 M131.3847256038936 -7.660794961602221 C131.52253771728726 -6.591951424200977, 131.6603498306809 -5.523107886799734, 131.77819742156152 -4.609105243568733 M131.3847256038936 -7.660794961602221 C131.5321480907612 -6.517415265319817, 131.67957057762882 -5.374035569037414, 131.77819742156152 -4.609105243568733 M131.77819742156152 -4.609105243568733 C131.85696617111904 -3.3822183882201826, 131.93573492067654 -2.1553315328716325, 131.97533837763302 -1.538475723439448 M131.77819742156152 -4.609105243568733 C131.8522709127402 -3.455350827414469, 131.92634440391893 -2.3015964112602054, 131.97533837763302 -1.538475723439448 M131.97533837763302 -1.538475723439448 C131.97533837763302 -0.3414380743072747, 131.97533837763302 0.8555995748248986, 131.97533837763302 1.5384757234394364 M131.97533837763302 -1.538475723439448 C131.97533837763302 -0.37986073329419834, 131.97533837763302 0.7787542568510513, 131.97533837763302 1.5384757234394364 M131.97533837763302 1.5384757234394364 C131.90480709059256 2.6370574509246856, 131.83427580355212 3.735639178409935, 131.77819742156152 4.609105243568701 M131.97533837763302 1.5384757234394364 C131.9104531609959 2.549115346966649, 131.8455679443588 3.559754970493862, 131.77819742156152 4.609105243568701 M131.77819742156152 4.609105243568701 C131.6795871482688 5.373907050425901, 131.5809768749761 6.1387088572831, 131.3847256038936 7.660794961602187 M131.77819742156152 4.609105243568701 C131.6621580871885 5.509083406407489, 131.54611875281546 6.409061569246278, 131.3847256038936 7.660794961602187 M131.3847256038936 7.660794961602187 C131.25413099317893 8.331370686441234, 131.1235363824643 9.001946411280281, 130.79653978472754 10.681004829903085 M131.3847256038936 7.660794961602187 C131.2624021287944 8.288900153160894, 131.14007865369524 8.9170053447196, 130.79653978472754 10.681004829903085 M130.79653978472754 10.681004829903085 C130.52506847202304 11.716242601656578, 130.2535971593185 12.751480373410072, 130.01605694575971 13.657324158289539 M130.79653978472754 10.681004829903085 C130.53571365176975 11.675647917632228, 130.27488751881197 12.670291005361369, 130.01605694575971 13.657324158289539 M130.01605694575971 13.657324158289539 C129.68688680004934 14.648732191028758, 129.357716654339 15.640140223767975, 129.0464842583885 16.577522612222758 M130.01605694575971 13.657324158289539 C129.77801689253357 14.37426287207471, 129.53997683930743 15.091201585859878, 129.0464842583885 16.577522612222758 M129.0464842583885 16.577522612222758 C128.74655706801255 17.318348571149116, 128.44662987763658 18.059174530075474, 127.891805904759 19.429600469874902 M129.0464842583885 16.577522612222758 C128.72084175147344 17.381865900172503, 128.3951992445584 18.18620918812225, 127.891805904759 19.429600469874902 M127.891805904759 19.429600469874902 C127.43022089267951 20.38809162379504, 126.96863588060003 21.346582777715184, 126.55676670590401 22.201837931560082 M127.891805904759 19.429600469874902 C127.59889394804449 20.037838415304435, 127.30598199133 20.646076360733968, 126.55676670590401 22.201837931560082 M126.55676670590401 22.201837931560082 C126.19723655674964 22.84022011775903, 125.83770640759528 23.47860230395798, 125.04685262425662 24.8828432789052 M126.55676670590401 22.201837931560082 C125.95563526271594 23.26920768009975, 125.35450381952788 24.33657742863942, 125.04685262425662 24.8828432789052 M125.04685262425662 24.8828432789052 C124.53454293649894 25.6698885337144, 124.02223324874124 26.4569337885236, 123.36826822065389 27.46159968586413 M125.04685262425662 24.8828432789052 C124.58945925761489 25.58552231738328, 124.13206589097317 26.288201355861364, 123.36826822065389 27.46159968586413 M123.36826822065389 27.46159968586413 C122.9704837877767 27.994594587012212, 122.57269935489953 28.527589488160295, 121.52791115846543 29.927510489219202 M123.36826822065389 27.46159968586413 C122.7722111496675 28.26026185906963, 122.17615407868111 29.058924032275126, 121.52791115846543 29.927510489219202 M121.52791115846543 29.927510489219202 C120.91707986963041 30.645027678369782, 120.3062485807954 31.362544867520363, 119.53334385961516 32.27044273254319 M121.52791115846543 29.927510489219202 C120.96072086188573 30.59376448562387, 120.39353056530605 31.260018482028535, 119.53334385961516 32.27044273254319 M119.53334385961516 32.27044273254319 C118.95064713743257 32.87212493848731, 118.36795041524998 33.47380714443143, 117.39276242896736 34.48076880469091 M119.53334385961516 32.27044273254319 C118.84393972981698 32.9823090976915, 118.1545356000188 33.69417546283981, 117.39276242896736 34.48076880469091 M117.39276242896736 34.48076880469091 C116.62281551410885 35.18001422108638, 115.85286859925034 35.879259637481844, 115.11496297477387 36.549406001718424 M117.39276242896736 34.48076880469091 C116.80571898840287 35.013906125093285, 116.21867554783839 35.54704344549565, 115.11496297477387 36.549406001718424 M115.11496297477387 36.549406001718424 C114.53908362513404 37.008654458263095, 113.96320427549422 37.46790291480776, 112.70930546357837 38.467853849661914 M115.11496297477387 36.549406001718424 C114.2878762277634 37.20898567275659, 113.46078948075292 37.868565343794764, 112.70930546357837 38.467853849661914 M112.70930546357837 38.467853849661914 C111.93330883651625 39.00915550434789, 111.1573122094541 39.550457159033854, 110.18567525810636 40.22822903480834 M112.70930546357837 38.467853849661914 C112.05017538781763 38.927634457231505, 111.39104531205687 39.3874150648011, 110.18567525810636 40.22822903480834 M110.18567525810636 40.22822903480834 C109.27106821084833 40.78266920168377, 108.3564611635903 41.33710936855919, 107.55444249618901 41.82329779792269 M110.18567525810636 40.22822903480834 C109.47057903701362 40.661724566406605, 108.75548281592089 41.09522009800487, 107.55444249618901 41.82329779792269 M107.55444249618901 41.82329779792269 C106.972091187459 42.12711010267332, 106.389739878729 42.43092240742395, 104.8264194776428 43.246505659316114 M107.55444249618901 41.82329779792269 C106.8625328885077 42.18426659706078, 106.17062328082638 42.54523539619887, 104.8264194776428 43.246505659316114 M104.8264194776428 43.246505659316114 C103.98042611043984 43.62100182747527, 103.13443274323689 43.99549799563442, 102.01281623420998 44.49200435260904 M104.8264194776428 43.246505659316114 C103.7529233312058 43.72171055921201, 102.67942718476881 44.196915459107906, 102.01281623420998 44.49200435260904 M102.01281623420998 44.49200435260904 C101.4044881799055 44.71587469991598, 100.79616012560102 44.939745047222914, 99.12519446513383 45.554675856512084 M102.01281623420998 44.49200435260904 C100.95429510916705 44.88154991148685, 99.89577398412412 45.27109547036467, 99.12519446513383 45.554675856512084 M99.12519446513383 45.554675856512084 C98.23679574544244 45.81834793321645, 97.34839702575104 46.08202000992082, 96.1754200276564 46.4301534258734 M99.12519446513383 45.554675856512084 C98.05358446691149 45.87272407898881, 96.98197446868915 46.190772301465536, 96.1754200276564 46.4301534258734 M96.1754200276564 46.4301534258734 C95.0623274953493 46.6842095327649, 93.94923496304219 46.938265639656414, 93.17561417766589 47.114839535571136 M96.1754200276564 46.4301534258734 C95.32238514178866 46.62485307199986, 94.46935025592092 46.81955271812632, 93.17561417766589 47.114839535571136 M93.17561417766589 47.114839535571136 C92.36870739502588 47.24529396653281, 91.56180061238587 47.3757483974945, 90.13810376085631 47.60592066351581 M93.17561417766589 47.114839535571136 C92.1051242847375 47.28790803968669, 91.0346343918091 47.460976543802246, 90.13810376085631 47.60592066351581 M90.13810376085631 47.60592066351581 C89.39167783660186 47.67792747472012, 88.64525191234742 47.74993428592444, 87.07537055907422 47.901378852016144 M90.13810376085631 47.60592066351581 C89.48957625286856 47.66848333224295, 88.84104874488081 47.73104600097008, 87.07537055907422 47.901378852016144 M87.07537055907422 47.901378852016144 C86.05826796138763 47.933995352653845, 85.04116536370105 47.966611853291546, 84.00000000000001 48 M87.07537055907422 47.901378852016144 C86.40344409673244 47.92292622583793, 85.73151763439066 47.94447359965971, 84.00000000000001 48 M84.00000000000001 48 C84.00000000000001 48, 84 48, 84 48 M84.00000000000001 48 C84.00000000000001 48, 84 48, 84 48 M84 48 C46.42592278619669 48, 8.851845572393387 48, -83.99999999999999 48 M84 48 C16.921452821672176 48, -50.15709435665565 48, -83.99999999999999 48 M-83.99999999999999 48 C-85.13986003807985 47.96344690718175, -86.27972007615969 47.926893814363495, -87.0753705590742 47.901378852016144 M-83.99999999999999 48 C-84.93039409520539 47.97016407226901, -85.86078819041079 47.940328144538014, -87.0753705590742 47.901378852016144 M-87.0753705590742 47.901378852016144 C-88.14962618582763 47.79774670368465, -89.22388181258107 47.69411455535317, -90.1381037608563 47.60592066351581 M-87.0753705590742 47.901378852016144 C-88.2034413918392 47.79255521548297, -89.33151222460423 47.6837315789498, -90.1381037608563 47.60592066351581 M-90.1381037608563 47.60592066351581 C-90.76646254759753 47.504332487870656, -91.39482133433876 47.40274431222551, -93.17561417766586 47.114839535571136 M-90.1381037608563 47.60592066351581 C-90.82598983065049 47.49470857838763, -91.51387590044467 47.38349649325945, -93.17561417766586 47.114839535571136 M-93.17561417766586 47.114839535571136 C-93.90236190114445 46.94896411015925, -94.62910962462303 46.78308868474737, -96.17542002765634 46.430153425873414 M-93.17561417766586 47.114839535571136 C-94.04413168757662 46.91660608154042, -94.91264919748738 46.71837262750971, -96.17542002765634 46.430153425873414 M-96.17542002765634 46.430153425873414 C-96.86053100670985 46.226816083511245, -97.54564198576337 46.023478741149084, -99.12519446513377 45.554675856512105 M-96.17542002765634 46.430153425873414 C-96.83969708581162 46.23299948187436, -97.50397414396689 46.03584553787531, -99.12519446513377 45.554675856512105 M-99.12519446513377 45.554675856512105 C-99.85913999804373 45.28457711588311, -100.59308553095369 45.01447837525411, -102.01281623420996 44.492004352609044 M-99.12519446513377 45.554675856512105 C-100.0011101907032 45.23233077262635, -100.87702591627264 44.90998568874058, -102.01281623420996 44.492004352609044 M-102.01281623420996 44.492004352609044 C-102.8200167786709 44.13468061632958, -103.62721732313186 43.777356880050114, -104.82641947764279 43.24650565931613 M-102.01281623420996 44.492004352609044 C-103.01352504264753 44.04902024808583, -104.0142338510851 43.60603614356261, -104.82641947764279 43.24650565931613 M-104.82641947764279 43.24650565931613 C-105.53136191839296 42.87873763951394, -106.23630435914315 42.51096961971176, -107.554442496189 41.823297797922706 M-104.82641947764279 43.24650565931613 C-105.4057007293864 42.94429500132884, -105.98498198113 42.64208434334155, -107.554442496189 41.823297797922706 M-107.554442496189 41.823297797922706 C-108.1947824524318 41.43511995339305, -108.8351224086746 41.046942108863384, -110.1856752581063 40.22822903480837 M-107.554442496189 41.823297797922706 C-108.17229071629829 41.448754576013286, -108.7901389364076 41.07421135410386, -110.1856752581063 40.22822903480837 M-110.1856752581063 40.22822903480837 C-110.88825224153788 39.73814174523392, -111.59082922496948 39.24805445565947, -112.70930546357836 38.46785384966192 M-110.1856752581063 40.22822903480837 C-111.03084365492457 39.63867614793817, -111.87601205174283 39.049123261067976, -112.70930546357836 38.46785384966192 M-112.70930546357836 38.46785384966192 C-113.54238608723823 37.80349422149962, -114.3754667108981 37.139134593337324, -115.11496297477383 36.54940600171847 M-112.70930546357836 38.46785384966192 C-113.45968744711918 37.869444186291325, -114.21006943066 37.271034522920736, -115.11496297477383 36.54940600171847 M-115.11496297477383 36.54940600171847 C-115.68774362742477 36.02922176792649, -116.26052428007571 35.50903753413451, -117.39276242896733 34.480768804690946 M-115.11496297477383 36.54940600171847 C-115.69260334131143 36.02480830435561, -116.27024370784902 35.50021060699275, -117.39276242896733 34.480768804690946 M-117.39276242896733 34.480768804690946 C-118.16792037679934 33.6803545819033, -118.94307832463136 32.87994035911565, -119.53334385961514 32.2704427325432 M-117.39276242896733 34.480768804690946 C-118.12796133851005 33.721615569635055, -118.86316024805276 32.962462334579165, -119.53334385961514 32.2704427325432 M-119.53334385961514 32.2704427325432 C-120.03112845657662 31.685716620206282, -120.5289130535381 31.100990507869362, -121.52791115846543 29.927510489219216 M-119.53334385961514 32.2704427325432 C-120.1686208904273 31.52421018386415, -120.80389792123947 30.777977635185092, -121.52791115846543 29.927510489219216 M-121.52791115846543 29.927510489219216 C-121.90494838551226 29.422314953774475, -122.28198561255908 28.917119418329737, -123.36826822065387 27.461599685864158 M-121.52791115846543 29.927510489219216 C-122.00653539779955 29.286197612076695, -122.48515963713369 28.644884734934177, -123.36826822065387 27.461599685864158 M-123.36826822065387 27.461599685864158 C-123.79257070300592 26.80975713180164, -124.21687318535795 26.15791457773912, -125.04685262425659 24.882843278905227 M-123.36826822065387 27.461599685864158 C-123.99805030823495 26.494085279170037, -124.62783239581604 25.52657087247591, -125.04685262425659 24.882843278905227 M-125.04685262425659 24.882843278905227 C-125.36013136734591 24.326585147637466, -125.67341011043526 23.770327016369706, -126.556766705904 22.2018379315601 M-125.04685262425659 24.882843278905227 C-125.47702958494223 24.119020525067096, -125.90720654562789 23.355197771228966, -126.556766705904 22.2018379315601 M-126.556766705904 22.2018379315601 C-126.90138316136297 21.486234488188625, -127.24599961682195 20.770631044817147, -127.891805904759 19.42960046987492 M-126.556766705904 22.2018379315601 C-126.9340611865838 21.41837786961982, -127.31135566726363 20.634917807679546, -127.891805904759 19.42960046987492 M-127.891805904759 19.42960046987492 C-128.32386397836657 18.362408674789627, -128.75592205197415 17.295216879704338, -129.0464842583885 16.577522612222793 M-127.891805904759 19.42960046987492 C-128.17310182682442 18.734794103886674, -128.45439774888982 18.03998773789843, -129.0464842583885 16.577522612222793 M-129.0464842583885 16.577522612222793 C-129.42028796500566 15.451685405424453, -129.79409167162282 14.32584819862611, -130.01605694575971 13.657324158289558 M-129.0464842583885 16.577522612222793 C-129.2703183933724 15.903369860777522, -129.49415252835632 15.22921710933225, -130.01605694575971 13.657324158289558 M-130.01605694575971 13.657324158289558 C-130.29167557513887 12.606270870597207, -130.56729420451805 11.555217582904858, -130.79653978472754 10.681004829903102 M-130.01605694575971 13.657324158289558 C-130.2495748805229 12.766819065724382, -130.4830928152861 11.876313973159206, -130.79653978472754 10.681004829903102 M-130.79653978472754 10.681004829903102 C-130.93033192457057 9.994010468787918, -131.0641240644136 9.307016107672734, -131.3847256038936 7.660794961602226 M-130.79653978472754 10.681004829903102 C-130.99925034741807 9.640128933379877, -131.20196091010857 8.599253036856652, -131.3847256038936 7.660794961602226 M-131.3847256038936 7.660794961602226 C-131.4958661483331 6.798810846112404, -131.6070066927726 5.936826730622581, -131.77819742156152 4.60910524356876 M-131.3847256038936 7.660794961602226 C-131.5083406209627 6.7020612997604285, -131.6319556380318 5.743327637918631, -131.77819742156152 4.60910524356876 M-131.77819742156152 4.60910524356876 C-131.82785293165148 3.835680592711273, -131.87750844174144 3.0622559418537856, -131.97533837763302 1.538475723439454 M-131.77819742156152 4.60910524356876 C-131.8508645303904 3.477256367724264, -131.9235316392193 2.3454074918797674, -131.97533837763302 1.538475723439454 M-131.97533837763302 1.538475723439454 C-131.97533837763302 0.6081759037200649, -131.97533837763302 -0.3221239159993241, -131.97533837763302 -1.5384757234394306 M-131.97533837763302 1.538475723439454 C-131.97533837763302 0.32004023265301385, -131.97533837763302 -0.8983952581334262, -131.97533837763302 -1.5384757234394306 M-131.97533837763302 -1.5384757234394306 C-131.9036414440611 -2.65521333654522, -131.83194451048917 -3.7719509496510097, -131.77819742156152 -4.6091052435686946 M-131.97533837763302 -1.5384757234394306 C-131.9204527476099 -2.39336371393277, -131.86556711758678 -3.2482517044261097, -131.77819742156152 -4.6091052435686946 M-131.77819742156152 -4.6091052435686946 C-131.62910538874144 -5.7654336085692055, -131.4800133559214 -6.921761973569717, -131.3847256038936 -7.660794961602203 M-131.77819742156152 -4.6091052435686946 C-131.65109642197993 -5.594875497392193, -131.52399542239834 -6.580645751215691, -131.3847256038936 -7.660794961602203 M-131.3847256038936 -7.660794961602203 C-131.22390112404625 -8.486594675352443, -131.06307664419893 -9.312394389102682, -130.79653978472754 -10.681004829903081 M-131.3847256038936 -7.660794961602203 C-131.2138159599718 -8.538379861374512, -131.04290631605005 -9.415964761146823, -130.79653978472754 -10.681004829903081 M-130.79653978472754 -10.681004829903081 C-130.5548157336242 -11.602803400626637, -130.31309168252082 -12.524601971350194, -130.01605694575971 -13.657324158289534 M-130.79653978472754 -10.681004829903081 C-130.5992711426548 -11.433275658896763, -130.40200250058206 -12.185546487890447, -130.01605694575971 -13.657324158289534 M-130.01605694575971 -13.657324158289534 C-129.64687453350732 -14.769242762764437, -129.27769212125494 -15.88116136723934, -129.04648425838852 -16.577522612222733 M-130.01605694575971 -13.657324158289534 C-129.71701545853895 -14.55798947200792, -129.4179739713182 -15.458654785726306, -129.04648425838852 -16.577522612222733 M-129.04648425838852 -16.577522612222733 C-128.71470140030877 -17.397032686264883, -128.38291854222902 -18.216542760307032, -127.891805904759 -19.429600469874895 M-129.04648425838852 -16.577522612222733 C-128.6274368660603 -17.612577773003594, -128.2083894737321 -18.647632933784454, -127.891805904759 -19.429600469874895 M-127.891805904759 -19.429600469874895 C-127.50237126252371 -20.238269837042978, -127.11293662028841 -21.046939204211057, -126.55676670590401 -22.20183793156008 M-127.891805904759 -19.429600469874895 C-127.42374556194333 -20.401537786618597, -126.95568521912767 -21.373475103362303, -126.55676670590401 -22.20183793156008 M-126.55676670590401 -22.20183793156008 C-125.95411420734897 -23.27190846792738, -125.35146170879393 -24.34197900429468, -125.04685262425662 -24.882843278905213 M-126.55676670590401 -22.20183793156008 C-126.07944685471146 -23.04936766122853, -125.60212700351892 -23.89689739089698, -125.04685262425662 -24.882843278905213 M-125.04685262425662 -24.882843278905213 C-124.61829567438453 -25.541221837563015, -124.18973872451242 -26.199600396220816, -123.36826822065387 -27.461599685864144 M-125.04685262425662 -24.882843278905213 C-124.5255334999869 -25.683729447569334, -124.00421437571718 -26.48461561623345, -123.36826822065387 -27.461599685864144 M-123.36826822065387 -27.461599685864144 C-122.85676956108682 -28.146961291197485, -122.34527090151978 -28.832322896530826, -121.52791115846544 -29.927510489219202 M-123.36826822065387 -27.461599685864144 C-122.79879919050569 -28.224636306566804, -122.2293301603575 -28.98767292726946, -121.52791115846544 -29.927510489219202 M-121.52791115846544 -29.927510489219202 C-120.93917418762501 -30.619074435251022, -120.3504372167846 -31.310638381282843, -119.53334385961517 -32.27044273254319 M-121.52791115846544 -29.927510489219202 C-120.89246531264575 -30.67394133761194, -120.25701946682608 -31.420372186004677, -119.53334385961517 -32.27044273254319 M-119.53334385961517 -32.27044273254319 C-119.09982736240214 -32.71808410828199, -118.6663108651891 -33.1657254840208, -117.39276242896737 -34.480768804690896 M-119.53334385961517 -32.27044273254319 C-118.79058242390884 -33.03740489675795, -118.04782098820252 -33.80436706097271, -117.39276242896737 -34.480768804690896 M-117.39276242896737 -34.480768804690896 C-116.71759712353777 -35.093936071186995, -116.04243181810817 -35.70710333768309, -115.11496297477387 -36.549406001718424 M-117.39276242896737 -34.480768804690896 C-116.80644159930269 -35.013249868993306, -116.22012076963802 -35.545730933295715, -115.11496297477387 -36.549406001718424 M-115.11496297477387 -36.549406001718424 C-114.47863311728652 -37.056862129615915, -113.84230325979918 -37.56431825751341, -112.70930546357837 -38.46785384966191 M-115.11496297477387 -36.549406001718424 C-114.5489883669733 -37.00075569022253, -113.98301375917274 -37.45210537872664, -112.70930546357837 -38.46785384966191 M-112.70930546357837 -38.46785384966191 C-112.12748385461306 -38.87370741742459, -111.54566224564776 -39.27956098518728, -110.18567525810636 -40.22822903480834 M-112.70930546357837 -38.46785384966191 C-112.1501673505536 -38.857884392609186, -111.59102923752883 -39.247914935556466, -110.18567525810636 -40.22822903480834 M-110.18567525810636 -40.22822903480834 C-109.40426804196763 -40.70192268129014, -108.62286082582891 -41.17561632777195, -107.55444249618901 -41.823297797922685 M-110.18567525810636 -40.22822903480834 C-109.52069063570785 -40.63134662078972, -108.85570601330933 -41.034464206771105, -107.55444249618901 -41.823297797922685 M-107.55444249618901 -41.823297797922685 C-106.66028470570396 -42.289779344483335, -105.76612691521892 -42.75626089104399, -104.8264194776428 -43.246505659316114 M-107.55444249618901 -41.823297797922685 C-106.82102770422374 -42.205919825116375, -106.08761291225845 -42.58854185231007, -104.8264194776428 -43.246505659316114 M-104.8264194776428 -43.246505659316114 C-104.2287846139696 -43.511060885255894, -103.6311497502964 -43.77561611119567, -102.01281623420998 -44.49200435260903 M-104.8264194776428 -43.246505659316114 C-103.7611709255729 -43.718059593841886, -102.695922373503 -44.189613528367666, -102.01281623420998 -44.49200435260903 M-102.01281623420998 -44.49200435260903 C-101.28878527351492 -44.75845443901365, -100.56475431281986 -45.024904525418265, -99.12519446513383 -45.554675856512084 M-102.01281623420998 -44.49200435260903 C-101.06454357772867 -44.8409774559305, -100.11627092124736 -45.18995055925197, -99.12519446513383 -45.554675856512084 M-99.12519446513383 -45.554675856512084 C-98.16146508754244 -45.84070567706247, -97.19773570995106 -46.12673549761286, -96.1754200276564 -46.4301534258734 M-99.12519446513383 -45.554675856512084 C-97.99213490575171 -45.8909619861857, -96.85907534636958 -46.227248115859325, -96.1754200276564 -46.4301534258734 M-96.1754200276564 -46.4301534258734 C-95.33480966989102 -46.62201725453812, -94.49419931212562 -46.81388108320284, -93.17561417766589 -47.11483953557113 M-96.1754200276564 -46.4301534258734 C-95.15203554044363 -46.66373425687183, -94.12865105323087 -46.89731508787025, -93.17561417766589 -47.11483953557113 M-93.17561417766589 -47.11483953557113 C-92.5351189505568 -47.21838983677546, -91.89462372344768 -47.321940137979794, -90.13810376085632 -47.60592066351581 M-93.17561417766589 -47.11483953557113 C-92.01068821462883 -47.3031757311392, -90.84576225159175 -47.49151192670726, -90.13810376085632 -47.60592066351581 M-90.13810376085632 -47.60592066351581 C-89.20467942034324 -47.6959669870381, -88.27125507983015 -47.78601331056038, -87.07537055907422 -47.901378852016144 M-90.13810376085632 -47.60592066351581 C-88.92518227021134 -47.72292974096682, -87.71226077956634 -47.83993881841783, -87.07537055907422 -47.901378852016144 M-87.07537055907422 -47.901378852016144 C-85.98813400271557 -47.93624441220099, -84.90089744635694 -47.97110997238583, -84.00000000000001 -48 M-87.07537055907422 -47.901378852016144 C-85.85175464345106 -47.94061783280628, -84.62813872782792 -47.97985681359642, -84.00000000000001 -48 M-84.00000000000001 -48 C-84.00000000000001 -48, -84.00000000000001 -48, -84 -48 M-84.00000000000001 -48 C-84.00000000000001 -48, -84 -48, -84 -48" stroke="#3fb950" stroke-width="1.5" fill="none" stroke-dasharray="0 0" style="fill:#0f1d33 !important;stroke:#3fb950 !important;stroke-width:1.5px !important;rx:14 !important;ry:14 !important"/></g><g class="label" style="color:#3fb950 !important" transform="translate(-100, -36)"><rect/><foreignObject width="200" height="72"><div style="color: rgb(63, 185, 80) !important; display: table; white-space: break-spaces; line-height: 1.5; max-width: 200px; text-align: center; width: 200px;" xmlns="http://www.w3.org/1999/xhtml"><span style="color:#3fb950 !important" class="nodeLabel"><p><b>/lich-review · /lich-explain · /lich-disable</b><br /><small style="color:#8b949e">skill-invoked pull surface</small></p></span></div></foreignObject></g></g></g></g><marker id="my-svg_flowchart-v2-pointEnd-margin__8b949e" class="marker flowchart-v2" viewBox="0 0 11.5 14" refX="11.5" refY="7" markerUnits="userSpaceOnUse" markerWidth="10.5" markerHeight="14" orient="auto"><path d="M 0 0 L 11.5 7 L 0 14 z" class="arrowMarkerPath" style="stroke-width: 0; stroke-dasharray: 1, 0;" stroke="#8b949e" fill="#8b949e"/></marker></g><defs><filter id="my-svg-drop-shadow" height="130%" width="130%"><feDropShadow dx="4" dy="4" stdDeviation="0" flood-opacity="0.06" flood-color="#FFFFFF"/></filter></defs><defs><filter id="my-svg-drop-shadow-small" height="150%" width="150%"><feDropShadow dx="2" dy="2" stdDeviation="0" flood-opacity="0.06" flood-color="#FFFFFF"/></filter></defs><linearGradient id="my-svg-gradient" gradientUnits="objectBoundingBox" x1="0%" y1="0%" x2="100%" y2="0%"><stop offset="0%" stop-color="#cccccc" stop-opacity="1"/><stop offset="100%" stop-color="hsl(180, 0%, 18.3529411765%)" stop-opacity="1"/></linearGradient><text text-anchor="middle" x="732.951904296875" y="-25" class="flowchartTitleText">Lich per-review state flow</text></svg>